<?xml version="1.0" encoding="utf-8"?>
<!-- Generator: Adobe Illustrator 23.0.6, SVG Export Plug-In . SVG Version: 6.00 Build 0)  -->
<svg version="1.1" id="Capa_1" xmlns="http://www.w3.org/2000/svg" xmlns:xlink="http://www.w3.org/1999/xlink" x="0px" y="0px"
	 viewBox="0 0 128 128" style="enable-background:new 0 0 128 128;" xml:space="preserve">
<style type="text/css">
	.st0{fill:#FFFFFF;}
</style>
<path class="st0" d="M13.7,107.1h8v17.4h-3.5v-14l-3.1,0h-0.7c-1.7,0-2.7,0.1-2.9,0.2c-1,0.3-1.9,0.9-2.6,1.8
	c-0.8,1.1-1.2,2.2-1.2,3.3c0,1.4,0.5,2.6,1.6,3.7c0.7,0.7,1.3,1.1,1.8,1.2c0.5,0.3,1.4,0.4,2.6,0.4h2.4v3.4h-2.9
	c-2.2,0-4-0.6-5.5-1.7c-1.1-0.9-1.8-1.6-2.2-2.3c-0.9-1.4-1.4-2.9-1.4-4.4v-0.5c0-2.1,0.8-4,2.4-5.8c0.9-0.9,1.7-1.5,2.3-1.8
	c0.4-0.2,1-0.5,1.8-0.7C11.4,107.2,12.4,107.1,13.7,107.1z M39.3,110.6c0.3,0.5,0.6,0.9,0.7,1.2c0.2,0.4,0.4,0.9,0.6,1.6
	c0.2,0.8,0.4,1.9,0.4,3.3v7.9h-3.5v-8.2c0-2.8-1.3-4.6-3.8-5.6c-0.6-0.2-1.1-0.2-1.5-0.3c-0.4,0-0.9,0.1-1.5,0.3
	c-2.5,0.9-3.8,2.8-3.8,5.6v8.2h-3.5v-7.9c0-1.4,0.1-2.5,0.4-3.3c0.2-0.7,0.4-1.2,0.6-1.6c0.2-0.3,0.4-0.7,0.8-1.2
	c1.9-2.3,4.2-3.5,7-3.5C35.1,107.2,37.4,108.3,39.3,110.6z M49.1,107.1c2.3,0,3.7,0.1,4,0.2c1,0.1,2,0.5,3.2,1.2
	c0.7,0.4,1.3,1,2.1,1.8c1.3,1.6,2,3.5,2,5.5c0,1.2-0.2,2.3-0.7,3.4c-0.9,2.1-2.4,3.6-4.5,4.5c-1,0.5-2.5,0.7-4.5,0.7h-7.4l-0.4-0.1
	v-3.3h8.2c0.9,0,1.5-0.1,2-0.2c1.3-0.4,2.2-1.1,2.8-1.9c0.7-1.1,1.1-2.1,1.1-3.1c0-1-0.3-2-0.9-3c-0.4-0.6-0.8-1-1.3-1.3
	c-0.9-0.7-2.1-1.1-3.7-1.1h-8.2v-3.4L49.1,107.1L49.1,107.1z M62.2,107.1h11.2c2,0,3.5,0.6,4.6,1.8c0.5,0.5,0.8,0.9,1,1.4
	c0.4,0.9,0.7,1.7,0.7,2.6v0.5c0,1.3-0.6,2.5-1.7,3.7c-0.7,0.7-1.4,1.1-1.9,1.3c1.5,1.6,2.2,3.6,2.2,6.2h-3.5v-0.3
	c0-1.9-0.8-3.4-2.3-4.5c-0.9-0.6-2-0.9-3.4-0.9h-6.9v-3.4h11.4c1.2,0,2.1-0.6,2.5-1.8c0-0.2,0.1-0.5,0.1-0.6c0-0.7-0.3-1.3-0.9-1.9
	c-0.5-0.4-1-0.6-1.6-0.6c0,0-0.2,0-0.5,0H62.2C62.2,110.5,62.2,107.1,62.2,107.1z M90.3,107.2h0.1c2.7,0,5,1.1,6.9,3.3
	c1.2,1.6,1.8,3.4,1.8,5.4v0.1c0,2.7-1.1,4.9-3.4,6.8c-1.6,1.2-3.4,1.8-5.4,1.8h-0.1c-2.7,0-4.9-1.1-6.8-3.3
	c-0.7-0.9-1.1-1.8-1.4-2.5c-0.3-1-0.5-1.9-0.5-2.8v-0.1c0-2.6,1.1-4.9,3.2-6.7c1.5-1,2.8-1.6,4-1.8
	C89.2,107.2,89.7,107.2,90.3,107.2z M85,115.8c0,1.5,0.6,2.8,1.8,4c1.1,0.9,2.2,1.4,3.3,1.4h0.3c0.9,0,1.9-0.3,2.9-1
	c1-0.7,1.7-1.7,2-2.8c0.1-0.3,0.2-0.8,0.2-1.5c0-1.5-0.6-2.8-1.7-3.9c-1.1-1-2.3-1.4-3.6-1.4c-1.5,0-2.8,0.6-4,1.9
	c-0.5,0.6-0.8,1.2-0.9,1.6C85.1,114.7,85,115.3,85,115.8z M100.9,107.2h3.5v17.4h-3.5C100.9,124.6,100.9,107.2,100.9,107.2z
	 M112.5,107.1c2.3,0,3.7,0.1,4,0.2c0.9,0.1,2,0.5,3.2,1.2c0.7,0.4,1.3,1,2.1,1.8c1.3,1.6,2,3.5,2,5.5c0,1.2-0.2,2.3-0.7,3.4
	c-0.9,2.1-2.4,3.6-4.5,4.5c-1,0.5-2.5,0.7-4.5,0.7h-7.4l-0.4-0.1v-3.3h8.2c0.9,0,1.5-0.1,2-0.2c1.3-0.4,2.2-1.1,2.8-1.9
	c0.7-1.1,1.1-2.1,1.1-3.1c0-1-0.3-2-0.9-3c-0.4-0.6-0.8-1-1.3-1.3c-0.9-0.7-2.1-1.1-3.7-1.1h-8.2v-3.4L112.5,107.1L112.5,107.1z
	 M29.2,36.4c-3.3,0-5.9,2.7-5.9,5.9l0,24.9c0,3.3,2.7,5.9,5.9,5.9s5.9-2.7,5.9-5.9V42.3C35.1,39,32.5,36.4,29.2,36.4 M77.1,14
	l4.1-7.6c0.2-0.4,0.1-0.9-0.3-1.1c-0.4-0.2-0.9-0.1-1.1,0.3l-4.2,7.7c-3.5-1.6-7.5-2.4-11.6-2.4c-4.2,0-8.1,0.9-11.6,2.4l-4.2-7.6
	c-0.2-0.4-0.7-0.5-1.1-0.3c-0.4,0.2-0.6,0.7-0.3,1.1l4.1,7.6c-8.2,4.2-13.7,12.2-13.7,21.4l53.5,0C90.8,26.2,85.3,18.2,77.1,14
	 M51.8,25.7c-1.2,0-2.2-1-2.2-2.2c0-1.2,1-2.2,2.2-2.2c1.2,0,2.2,1,2.2,2.2C54.1,24.7,53,25.7,51.8,25.7 M76.2,25.7
	c-1.2,0-2.2-1-2.2-2.2c0-1.2,1-2.2,2.2-2.2c1.2,0,2.2,1,2.2,2.3C78.4,24.7,77.4,25.7,76.2,25.7 M37.4,37.5l0,38.6
	c0,3.5,2.8,6.3,6.3,6.3l4.3,0l0,13.2c0,3.3,2.7,5.9,5.9,5.9c3.3,0,5.9-2.7,5.9-5.9l0-13.2l8,0l0,13.2c0,3.3,2.7,5.9,5.9,5.9
	c3.3,0,5.9-2.7,5.9-5.9l0-13.2l4.3,0c3.5,0,6.3-2.8,6.3-6.3l0-38.6C90.6,37.5,37.4,37.5,37.4,37.5z M104.8,42.3
	c0-3.3-2.7-5.9-5.9-5.9c-3.3,0-5.9,2.7-5.9,5.9l0,24.9c0,3.3,2.7,5.9,5.9,5.9c3.3,0,5.9-2.7,5.9-5.9
	C104.8,67.2,104.8,42.3,104.8,42.3z"/>
</svg>
