<?xml version="1.0" encoding="utf-8"?>
<!-- Generator: Adobe Illustrator 23.0.6, SVG Export Plug-In . SVG Version: 6.00 Build 0)  -->
<svg version="1.1" id="Capa_1" xmlns="http://www.w3.org/2000/svg" xmlns:xlink="http://www.w3.org/1999/xlink" x="0px" y="0px"
	 viewBox="0 0 128 128" style="enable-background:new 0 0 128 128;" xml:space="preserve">
<style type="text/css">
	.st0{fill:#FFFFFF;}
</style>
<path class="st0" d="M21,43c-4.1,0-7.3,3.3-7.3,7.3l0,30.7c0,4.1,3.3,7.3,7.3,7.3c4.1,0,7.3-3.3,7.3-7.3V50.3
	C28.3,46.3,25.1,43,21,43 M80.2,15.4L85.3,6c0.3-0.5,0.1-1.1-0.4-1.4c-0.5-0.3-1.1-0.1-1.4,0.4l-5.2,9.5c-4.4-1.9-9.2-3-14.4-3
	c-5.1,0-10,1.1-14.3,3l-5.2-9.4c-0.3-0.5-0.9-0.7-1.4-0.4c-0.5,0.3-0.7,0.9-0.4,1.4l5.1,9.3c-10.1,5.2-16.9,15.1-16.9,26.4l66.1,0
	C97,30.5,90.3,20.6,80.2,15.4 M48.9,29.9c-1.5,0-2.8-1.2-2.8-2.8c0-1.5,1.2-2.8,2.8-2.8c1.5,0,2.8,1.3,2.8,2.8
	C51.7,28.6,50.5,29.9,48.9,29.9 M79,29.9c-1.5,0-2.8-1.2-2.8-2.8c0-1.5,1.2-2.8,2.8-2.8c1.5,0,2.8,1.3,2.8,2.8
	C81.8,28.6,80.6,29.9,79,29.9 M31.2,44.4l0,47.6c0,4.3,3.5,7.8,7.8,7.8l5.3,0l0,16.3c0,4.1,3.3,7.3,7.3,7.3c4.1,0,7.3-3.3,7.3-7.3
	l0-16.3l9.9,0l0,16.3c0,4,3.3,7.3,7.3,7.3c4.1,0,7.3-3.3,7.3-7.3l0-16.3l5.4,0c4.3,0,7.8-3.5,7.8-7.8l0-47.6L31.2,44.4L31.2,44.4z
	 M114.3,50.3c0-4.1-3.3-7.3-7.3-7.3c-4.1,0-7.3,3.3-7.3,7.3l0,30.7c0,4.1,3.3,7.3,7.3,7.3c4.1,0,7.3-3.3,7.3-7.3
	C114.3,81.1,114.3,50.3,114.3,50.3z"/>
</svg>
