<?xml version="1.0" encoding="utf-8"?>
<!-- Generator: Adobe Illustrator 23.0.6, SVG Export Plug-In . SVG Version: 6.00 Build 0)  -->
<svg version="1.1" id="babel" xmlns="http://www.w3.org/2000/svg" xmlns:xlink="http://www.w3.org/1999/xlink" x="0px" y="0px"
	 viewBox="0 0 128 128" style="enable-background:new 0 0 128 128;" xml:space="preserve">
<style type="text/css">
	.st0{fill:#FFFFFF;}
</style>
<title>Artboard 4</title>
<g id="plain">
	<path class="st0" d="M90.2,50.5v0.2h0.3c0-0.1,0-0.3,0.1-0.4V50C90.4,50,90.3,50.2,90.2,50.5L90.2,50.5z M87.2,43.4v-0.3h-0.4v0.3
		H87.2z M78.7,59.4c-0.6-1.1-1.4-2.1-2.3-3c0-0.3,0.5-0.8,1.6-1.4l3.1-2.7c0.8-1.3,1.3-2.8,1.3-4.3v-0.5c-0.1-1.4-1.1-2.5-3-3.3
		c-1.1-0.8-3.1-1.2-6-1.2c-3.2,0.4-6.4,1.3-9.4,2.6c-1.2,0.8-2.4,1.6-3.6,2.3V48c0.1,0,0.3-0.1,0.4-0.2c0.1,0,0.2,0,0.3,0.2
		c0,0,0,0,0,0.1L61,48h0.1v0.1c-0.8,0.8-1.6,1.4-2.5,2l0.1,0.2h-0.1l-0.3-0.1c0,0.1-0.1,0.1-0.3,0.2v0.1l0.3,0.3
		c-0.1,0-0.3,0-0.4-0.1c-0.5,0.1-0.9,0.3-1.2,0.6l0.2-0.7c0.5-2.1,0.9-4.3,1.2-6.5l0-0.2c-0.4-0.3-0.8-0.6-1.1-1c0-0.2,0-0.3,0-0.5
		v-0.1h-0.1c-1.2,1.8-3.6,5-7.1,9.5c-2.7,3.2-4,4.9-4.1,5.3c-1.1,1.1-1.6,1.8-1.6,2c-0.3,0.2-0.4,0.4-0.4,0.6c-0.1,0-0.1,0-0.2-0.1
		c0,0,0,0,0,0c-0.5,0.8-1.2,1.3-2.1,1.5l-1,0.2c-0.1,0-0.2,0.1-0.2,0.3c0,0,0,0,0,0v0.1l0.4-0.1v0.1L39.7,62l-1.5,0.3h-0.8
		c-0.1,0.1,0.6,0,0.3,0.1l-1,0.2c-0.6,0.1-0.9,0.1-1-0.2h-0.1c0,0.1,0,0.2,0,0.2l-0.1-0.2l-0.8,0.2c0-0.3-0.9-1.5-2.9-3.7
		c0-0.4,0.7-1,2.1-1.9l4.1-3.6c0.9-1.2,1.5-3.1,1.6-5.7l-0.1-0.6c-0.2-1.8-1.5-3.3-4-4.4c-1.5-1-4.1-1.5-7.9-1.6
		c-4.3,0.6-8.4,1.7-12.4,3.4c-1.5,1.1-3.1,2.1-4.8,3v0.3c0.2,0,0.3-0.1,0.5-0.2c0.1,0,0.3,0,0.3,0.2c0,0,0,0,0,0.1l0.3-0.2H12V48
		c-1,1-2.1,1.9-3.3,2.6l0.2,0.3H8.7l-0.3-0.1c0,0.1-0.1,0.2-0.5,0.2v0.2l0.4,0.4c-0.2,0-0.3,0-0.5-0.1c-0.9,0.2-1.7,0.8-2.1,1.6
		l0.2,0.3c0.3-0.3,0.7-0.6,1.1-0.8v0.5c-0.2,0-0.3,0.1-0.5,0.2l0.4,0.6c0.7-0.8,1.5-1.4,2.4-2c0.4,0.1,0.7,0.2,0.7,0.4h0.3
		c2.2-1.7,4.6-3,7.1-3.9v0.3c-0.4,0.7-0.7,1-0.9,1c0,0.2,0.1,0.4,0.2,0.6c0,0.4-1,3.1-3.2,8.1c-4.9,11.5-9,20.1-12.4,25.6
		c0,0.2,0.1,0.3,0.2,0.4c0.6-0.1,1.1-0.3,1.6-0.6h0.2V84h0.3l0.3-0.2c0,0.1,0.1,0.1,0.3,0.1v0.3c0,0.5-0.2,1-0.5,1.4
		c-0.5,0.7-0.8,1.5-1,2.3v0.2h0.3C4,86.8,5,85.3,5.8,83.7c3.1-0.8,6.1-2,9-3.4c1.7,0,3.4-0.6,4.7-1.6v-0.2l-0.8,0.2h-0.2v-0.2
		c1.1-0.1,2.2-0.4,3.2-1c3-2.3,5.2-3.9,6.7-4.9c3.1-2.3,5.1-4.5,6.1-6.7l0.5-0.1c0.2,0,0.5,0,0.8,0c0-0.1,0-0.1,0.1-0.2
		c0.7-0.1,0.4,0,0.8-0.1l1.2-0.3h0.2l-0.1,0.1c0.1,0,0.3,0,0.4,0l0.1,0.3l-5.3,8.5L32,75.7l-0.6,1.9h0.1l0.6-0.2l-0.2,0.8l0.1,0.2
		l0.2,0.2c-0.1,0-0.1,0.1-0.1,0.2v0.1l0.2-0.1c0.4-0.3,0.5-0.6,0.5-0.8C33,78,33.3,78,33.5,78v0.1c-0.2,0.1-0.3,0.2-0.4,0.6v0.1h0.1
		c1.9-2.1,6.7-9.3,10.5-14.3c-0.1-0.5,1.9-1.3,6-2.2h0.1c0.1,0.7-0.2,2.2-1,4.7c-0.3,0.8-0.6,1.6-0.7,2.4c-0.4,1-0.7,2.1-0.9,3.2
		l-1.4,4.7c-1,2.5-1.7,5-2.2,7.7c0.1,0,0.3,0,0.4,0l0.2-0.2c0,0.1,0.1,0.1,0.1,0.1c0,0,0,0,0,0l-0.1-0.3h0.6c0.2,0,0.3-0.3,0.5-0.7
		c0-0.6,0.1-1,0.4-1.1c0.1-0.8,0.4-1.6,0.7-2.3c0.2-0.9,0.4-1.8,0.8-2.6c0.5-2,1-3,1.2-3.1l0.1,0.2l-0.4,1c-0.5,2.5-1.2,5-2.1,7.3
		l0.2,0.9h0.1c1.7-3.7,4.2-11.1,7.5-22.1c0.1-0.9,0.6-1.7,1.4-2.2l-0.2-0.2v-0.1c0.3,0,0.6-0.2,0.8-0.4c0-0.1-0.3-0.2-1-0.4l1.6-7
		c0.2-0.2,0.4-0.4,0.6-0.5v0.3c-0.1,0-0.3,0.1-0.4,0.2l0.3,0.4c0.5-0.6,1.2-1.1,1.8-1.5c0.3,0.1,0.5,0.2,0.5,0.3h0.2
		c1.6-1.2,3.5-2.2,5.4-2.9v0.2c-0.3,0.5-0.5,0.7-0.7,0.8c0,0.2,0.1,0.3,0.2,0.5c-0.6,2.1-1.4,4.2-2.4,6.2
		c-2.7,6.7-5.9,13.2-9.4,19.6c0,0.1,0.1,0.2,0.2,0.3c0.4-0.1,0.8-0.2,1.2-0.5h0.1v0.2h0.3l0.2-0.1c0,0.1,0.1,0.1,0.2,0.1v0.2
		c0,0.4-0.2,0.7-0.4,1.1c-0.4,0.5-0.7,1.2-0.8,1.8v0.1H54c0.9-1,1.7-2.1,2.3-3.3c2.3-0.6,4.6-1.5,6.8-2.6c1.3,0,2.6-0.5,3.6-1.2
		v-0.1l-0.6,0.2H66v-0.1c0.8-0.1,1.7-0.3,2.4-0.8c2.2-1.7,4-3,5.1-3.7C77.1,64.4,78.8,61.9,78.7,59.4L78.7,59.4z M78.1,59.6l0.1,0.9
		c-0.1,0.2-0.2,0.3-0.3,0.4l-0.1-1.6C77.9,59.4,78.1,59.5,78.1,59.6z M7.5,52H7.4v-0.3l0.6,0v0.2C7.8,51.8,7.7,51.9,7.5,52L7.5,52z
		 M4.4,83.4c-0.3-0.2-0.7-0.2-1-0.2v-0.5c0-0.2,0.1-0.3,0.3-0.3S4,82.5,4,82.8c0.3-0.4,0.6-0.7,0.9-1L5.3,82
		C5.2,82.9,4.9,83.4,4.4,83.4L4.4,83.4z M37.9,48.3c-0.2,0-0.5-0.5-0.9-1.5v-0.3c0.3,0,0.6,0.5,0.9,1.5V48.3z M37.5,44.8l-0.1,0.3
		l-4.6-1.9C35.8,43.3,37.4,43.9,37.5,44.8z M18.2,61.3l-0.6,0.1v-0.3l0.6-0.1V61.3z M17.7,51.4h0.2v0.5c-0.1,0-0.3,0.2-0.6,0.7v-0.3
		C17.6,51.9,17.7,51.6,17.7,51.4L17.7,51.4z M16.4,54.6l0.1,0.6h-0.2l-0.1-0.6H16.4z M15.7,55.8H16c0,0.5-0.2,0.8-0.4,0.8h-0.2
		C15.6,56.3,15.7,56.1,15.7,55.8L15.7,55.8z M15.1,57.3h0.2v0.2L15,58h-0.3v-0.2c0.2,0,0.4-0.1,0.4-0.4
		C15.2,57.4,15.1,57.4,15.1,57.3L15.1,57.3z M14.6,58.8l-0.1,0.8h-0.2l-0.1-0.8L14.6,58.8L14.6,58.8z M9.4,73.6
		c-0.2,1-0.4,1.6-0.7,1.6v-0.2C8.7,74.5,8.9,74,9.4,73.6L9.4,73.6z M8.4,75.7v0.2c0,0.1,0,0.3-0.2,0.3c0,0-0.1,0-0.1,0V76
		C8.1,75.8,8.2,75.7,8.4,75.7L8.4,75.7z M8.1,80h0.5v0.2c-0.2,0-0.3,0.1-0.5,0.2H7.8C7.8,80.2,7.9,80.1,8.1,80L8.1,80z M21.9,75.7
		c-1.7,0.7-3.3,1.6-4.8,2.7c-2.9,1-4.4,1.7-4.4,1.9C11,81,9.3,81.8,7.6,82.7c-0.3,0-0.6-0.1-0.8-0.2c0-0.5,0.2-1,0.7-1.3
		c0.4,0,0.9,0,1.3,0.2c0.8-0.4,1.7-0.6,2.5-0.8v-0.3l-1,0.1c0.9-0.5,1.8-1,2.8-1.3h0.5v0.2c-0.8,0.1-1.3,0.3-1.4,0.8
		c0,0.2,0.1,0.3,0.3,0.3c0.6-0.4,0.9-0.6,0.9-0.7c1.2-0.2,4.4-1.9,9.8-5.1v0.3C23.3,74.8,22.8,75.2,21.9,75.7L21.9,75.7z M13.7,78.4
		c0.8-0.1,1.5-0.4,2-0.9c0.2,0,0.3,0.1,0.3,0.3c-0.8,0.2-1.5,0.5-2.2,1h-0.2L13.7,78.4L13.7,78.4z M27,68.3l-4.1,3.3
		c-1.6,1.1-3.2,2.1-4.9,3c-4.9,2.7-7.9,4.1-9.1,4.2H8.7c0.1-0.5,2.3-5,6.5-13.3c3-0.5,5.9-1.4,8.7-2.6l1-0.1
		c1.6-0.3,3.2,0.1,4.5,1.2l0.1,0.6C28.7,66.6,27.9,67.9,27,68.3L27,68.3z M19,63.7l0.7-0.1v0.2L19,63.9C19,63.9,19,63.8,19,63.7z
		 M28.3,62.2h0.5c0.5,0.2,0.7,0.4,0.7,0.6v0.2C29,62.9,28.5,62.7,28.3,62.2L28.3,62.2z M29.6,54.7c-1.1,1-2.3,1.9-3.6,2.6
		c-0.6,0.1-3,1-7.1,2.8C18.7,60,18.5,60,18.3,60v-0.3c0-0.8,0.3-1.6,0.8-2.2c0.3-1.7,0.7-2.6,1-2.9l3.4-7.7c0-0.5,0.7-0.8,2.2-1.1
		h0.5v0.4c1.5-0.2,2.4-0.3,2.7-0.4c2.7-0.2,4.1,0.3,4.2,1.6h0.3l-0.1-0.8h0.3c0.7,0.2,1.1,0.8,1.3,1.5c0,0.6-0.3,1.2-0.7,1.6
		c-0.2,0-0.3-0.1-0.3-0.4h-0.3l-0.1,0.9c-1.4,2-2.4,3.1-3,3.2C30,54.3,29.7,54.7,29.6,54.7L29.6,54.7z M31.7,60.1
		c-0.2-0.2-0.4-0.2-0.7-0.3v-0.5h0.3l0.7,0.4c0,0.1,0,0.3-0.2,0.3C31.8,60.1,31.8,60.1,31.7,60.1L31.7,60.1z M33.9,62.6
		c0.3,0.1,0.5,0.2,0.5,0.4h-0.2l0,0h-0.1l-0.2,0.2L33.9,62.6L33.9,62.6z M34,63.9v-0.1l0.4-0.1v0.1L34,63.9z M34.9,65
		c0.4-0.1,0.6-0.1,1.3-0.3v0.1l-1.4,0.3C34.9,65.1,34.9,65.1,34.9,65L34.9,65z M36.3,65.6c-0.5,0-1,0.1-1.4,0.2v-0.1l1.2-0.4
		l0.6-0.1l0.1,0.2C36.5,65.4,36.7,65.4,36.3,65.6L36.3,65.6z M37.6,65.3c-0.1,0-0.3,0-0.3-0.2c0,0,0,0,0,0l0.4-0.1
		c0.1,0,0.2,0,0.3,0.1c0,0,0,0,0,0.1L37.6,65.3z M41,61.6v-0.1l0.6-0.1l0.1,0.2L41,61.6L41,61.6z M44.6,83.9c0-0.1,0-0.2,0-0.4h0.1
		c0.1,0,0.2,0,0.3,0.1c0,0,0,0,0,0.1v0.1L44.6,83.9L44.6,83.9z M47.2,62.5h-0.3c-0.3,0.1-0.7,0.3-1.1,0.3l-0.2,0.1
		c-0.1,0-0.3,0-0.3-0.2c0,0,0,0,0,0l1.7-0.4l0.6-0.3l0.2,0.2C47.5,62.3,47.3,62.4,47.2,62.5L47.2,62.5z M48.5,62.1V62
		c0.1,0,0.2-0.1,0.3-0.2l1.2-0.3v0.1C49.5,61.7,49,61.9,48.5,62.1L48.5,62.1z M48.7,59.7c-0.1,0-0.2,0.1-0.3,0.2
		c0-0.1-0.2-0.1-0.5,0c-0.1-0.2,0.8-0.6,2.7-1l0.3-0.1l0.1,0.2C49.6,59.4,48.9,59.6,48.7,59.7L48.7,59.7z M51.9,56.1
		c-0.1,1.5-0.7,2.3-1.6,2.5v-0.1l-0.8,0.3L49.2,59c-0.2,0-0.3,0-0.5,0l-0.1-0.3c1.1-1.7,2.3-3.3,3.6-4.9h0.3
		C52.5,54.5,52.3,55.4,51.9,56.1L51.9,56.1z M57.7,51.2h-0.1V51h0.5v0.1C58,51.1,57.8,51.2,57.7,51.2L57.7,51.2z M55.3,75.1
		c-0.2-0.1-0.5-0.2-0.8-0.2v-0.3c0-0.1,0.1-0.2,0.2-0.2c0.2,0,0.2,0.1,0.3,0.3c0.2-0.3,0.4-0.5,0.7-0.8L56,74
		C55.9,74.7,55.7,75.1,55.3,75.1L55.3,75.1z M80.8,48.4c-0.1,0-0.3-0.4-0.7-1.1v-0.2c0.2,0,0.5,0.3,0.7,1.1V48.4z M80.5,45.8
		L80.4,46l-3.4-1.4C79.2,44.6,80.4,45,80.5,45.8z M65.9,58.3h-0.5v-0.2h0.5V58.3z M65.5,50.8h0.1v0.3c-0.1,0-0.3,0.2-0.4,0.5v-0.2
		C65.3,51.2,65.4,51,65.5,50.8L65.5,50.8z M64.5,53.2v0.5h-0.1v-0.5H64.5z M63.9,54h0.2c0,0.4-0.1,0.6-0.3,0.6h-0.1
		C63.8,54.5,63.9,54.3,63.9,54L63.9,54z M63.5,55.2h0.1v0.1l-0.2,0.4h-0.2v-0.1C63.4,55.6,63.5,55.5,63.5,55.2L63.5,55.2z
		 M63.1,56.3L63,56.9h-0.1v-0.6L63.1,56.3L63.1,56.3z M59.1,67.6c-0.2,0.8-0.3,1.2-0.5,1.2v-0.1C58.6,68.3,58.8,67.9,59.1,67.6
		L59.1,67.6z M58.4,69.2L58.4,69.2c0,0.2,0,0.3-0.1,0.4c0,0-0.1,0-0.1,0v-0.1C58.2,69.3,58.3,69.2,58.4,69.2z M58.2,72.5h0.4v0.1
		c-0.1,0-0.2,0.1-0.4,0.1H58C58,72.6,58,72.5,58.2,72.5L58.2,72.5z M68.7,69.2c-1.3,0.6-2.5,1.3-3.7,2.1c-2.2,0.8-3.3,1.3-3.3,1.5
		c-1.3,0.5-2.6,1.1-3.9,1.7c-0.2,0-0.4-0.1-0.6-0.2c0-0.4,0.2-0.8,0.5-1c0.3,0,0.7,0,1,0.2c0.6-0.3,1.3-0.5,1.9-0.6v-0.2l-0.8,0.1
		c0.7-0.4,1.4-0.8,2.1-1h0.4v0.1c-0.6,0.1-1,0.2-1.1,0.6c0,0.1,0.1,0.2,0.2,0.2c0,0,0,0,0.1,0c0.5-0.3,0.7-0.5,0.7-0.5
		c0.9-0.2,3.4-1.5,7.4-3.9v0.2C69.7,68.4,69.3,68.7,68.7,69.2L68.7,69.2z M62.4,71.2c0.6,0,1.2-0.3,1.6-0.6c0.2,0,0.2,0.1,0.3,0.2
		c-0.6,0.2-1.1,0.4-1.7,0.7h-0.1L62.4,71.2L62.4,71.2z M72.5,63.5L69.4,66c-1.2,0.9-2.5,1.6-3.8,2.3c-3.7,2-6,3.1-6.9,3.2h-0.1
		c0.1-0.4,1.8-3.8,5-10.1c2.3-0.4,4.5-1.1,6.6-2l0.8-0.1c1.2-0.2,2.5,0.1,3.4,0.9v0.5C73.7,62.2,73.1,63.2,72.5,63.5L72.5,63.5z
		 M66.4,60.1h0.5v0.1h-0.5V60.1z M73.5,58.9h0.4c0.3,0.2,0.5,0.3,0.5,0.4v0.1C74,59.5,73.6,59.3,73.5,58.9L73.5,58.9z M74.5,53.3
		c-0.8,0.8-1.7,1.4-2.7,2c-1.8,0.5-3.6,1.2-5.4,2.1c-0.2-0.1-0.3-0.1-0.5-0.1V57c0-0.6,0.2-1.2,0.6-1.7c0.2-1.3,0.5-2,0.8-2.2
		l2.6-5.8c0-0.3,0.5-0.6,1.6-0.8h0.4v0.3c1.1-0.2,1.8-0.3,2.1-0.3c2-0.2,3.1,0.2,3.2,1.2h0.2v-0.6h0.2c0.5,0.2,0.9,0.6,1,1.2
		c0,0.5-0.2,0.9-0.5,1.2c-0.2,0-0.2-0.1-0.3-0.3h-0.2L77.6,50c-1,1.6-1.8,2.4-2.3,2.4C74.9,53,74.7,53.3,74.5,53.3L74.5,53.3z
		 M75.5,57.1v-0.3h0.2l0.5,0.3c0,0.1-0.1,0.2-0.2,0.2c0,0,0,0,0,0C75.9,57.2,75.8,57.2,75.5,57.1L75.5,57.1z M32.2,79.8l-0.2,0.1
		L31.7,80c0,0.1,0.1,0.2,0.2,0.2c0,0,0,0,0.1,0c0.2,0,0.2-0.1,0.2-0.3L32.2,79.8L32.2,79.8z M31.2,77.9V78c0.2,0,0.2-0.1,0.2-0.3
		v-0.1C31.3,77.7,31.2,77.8,31.2,77.9C31.2,77.9,31.2,77.9,31.2,77.9z M37.8,65.5l0.2-0.1h-0.1C37.9,65.4,37.8,65.5,37.8,65.5
		L37.8,65.5z M37.8,62.3l0.3-0.1L38,62l-0.3,0.1L37.8,62.3L37.8,62.3z M103.7,71.7l-0.6-0.1l-0.1,0.2V72l3.8-0.3v-0.2L103.7,71.7
		L103.7,71.7z M107.1,71.4v0.2l0,0V71.4z M123,69.4v0.2l0.4,0.1v-0.2L123,69.4z M122.4,69.4c-1.2,0.3-2.5,0.5-3.8,0.6v0.2h0.3h0.1
		l0,0l0.3-0.1c2.8-0.3,3.1-0.2,3.1-0.5L122.4,69.4L122.4,69.4z M105.4,65.3l-0.2-0.1c-0.1,0.3-0.2,0.7-0.3,1v0.1
		C105,66.3,105.2,65.9,105.4,65.3L105.4,65.3z M102,63.4v-0.1h-0.1l-0.2,0.2l0.1,0.2C101.9,63.7,102,63.6,102,63.4L102,63.4z
		 M109.4,71.1v-0.2h-0.1L109.4,71.1L109.4,71.1z M124.7,67.6h0.2c0.1,0,0.2-0.1,0.1-0.2l-0.1-0.2c-0.5,0-1,0.1-1.5,0.4v-0.1
		l-0.8,0.1c0-0.2-0.1-0.3-0.2-0.3h-0.4c-0.5,0-0.7,0-0.9,0.2c0-0.1,0-0.1-0.1-0.1h-0.4l-0.3,0.2c0-0.1,0-0.1-0.1-0.1l-0.2,0.1v-0.1
		h-0.6h-0.2v0.2l0.3,0.1h0.3c0.1,0.1,0.2,0.1,0.3,0.1l0.3-0.1v0.1c-0.8,0.2-1.6,0.4-2.5,0.5c-0.1-0.1-0.2-0.1-0.2-0.1l0,0
		c-0.1,0-0.2-0.1-0.2-0.2c0,0,0,0,0,0l0.5-0.1c0.1,0,0.2,0.1,0.3,0.1c0.4-0.2,0.4-0.3,0.7-0.3v-0.2c-0.9,0.2-1.8,0.2-2.7,0.2h-0.1
		v-0.2c2.3-0.3,1.5-0.1,2.3-0.3c0,0.1,0,0.1,0.1,0.1c0.1-0.1,0.2-0.1,0.3-0.2h0.2c0.9,0,1.7-0.1,2.6-0.3v0.1l0.3-0.1h0.2
		c0-0.2,0.3-0.3,0.5-0.3V66c-2.8,0.6-3.6,0.4-4.3,0.6v-0.1c-0.3,0.1-0.7,0.1-1,0.1c-0.1,0-0.2,0.1-0.2,0.2c0-0.1,0-0.1-0.1-0.1l0,0
		l-2.4,0.4c0-0.1,0-0.1-0.1-0.1c-0.8,0.2-1.7,0.4-2.6,0.5c-0.1,0-0.2,0.1-0.3,0.1c0-0.1,0-0.1-0.1-0.1l-1,0.1l-0.7,0.2
		c0-0.1,0-0.1-0.1-0.1c-0.3,0.1-0.7,0.2-1,0.2l0,0c-0.2,0,0.1,0,0-0.1l-0.2,0.1c-0.3,0-0.1,0-1.2,0c-1.8,0.2-1.6,0.2-1.8,0.3h-0.7
		c0,0,0,0.1-0.1,0.1c0,0,0,0,0,0c-0.8-0.1-1.2-0.2-1.2-0.4c0.1-0.7,0.3-1.1,0.5-1.1h0.1l-0.1,0.2h0.1c0.2-0.1,0.3-0.2,0.3-0.4v-0.2
		h-0.2v-0.2c0-0.2,0-0.3,0.1-0.5l0.6-0.9V65h0.3v-0.2l-0.2-0.2c0.1-0.1,0.3-0.2,0.5-0.3v-0.1h-0.3v-0.3c0.5-0.8,0.8-1.7,1-2.6
		l0.2,0.1c0.2,0,0.2-0.1,0.2-0.3h-0.2V61c0-0.2,0-0.3,0.1-0.5c0.3-0.3,0.5-0.8,0.5-1.2c0.1,0,0.1,0,0.1,0.1c0.3-0.2,0.6-0.7,0.8-1.5
		c1-2,1.8-4.1,2.5-6.2c2.1-5.5,2-6.1,2.2-7.4h-0.2c0,0.2,0,0.3-0.1,0.5c-0.1-0.1-0.3-0.1-0.4-0.1v-0.1c0-0.6,0.2-1.2,0.6-1.7h0.1
		l0.2,0.8h0.2c0-0.3,0.1-0.7,0.2-1c0-0.1-0.1-0.2-0.3-0.2l-0.2,0.2c0-0.2,0-0.6,0-1.3H113c-0.2-0.1-0.3-0.3-0.3-0.5l-1.3,0.1
		c0-0.1-0.1-0.3-0.2-0.4c0-0.1,0.3-0.2,0.9-0.4l0.3,0.1l0.2-0.2c0,0.1,0.1,0.1,0.2,0.1L113,40c0,0.1,0.1,0.1,0.2,0.1h0.1v-0.3
		c-0.2,0-0.7,0-1.5,0l-0.2,0.2v-0.2c-6.3,0.5-9.8,0.8-10.7,0.9c-0.1,0-0.6,0-1.3,0c0,0.1-0.1,0.2-0.3,0.2l-0.3-0.1L98,41
		c-0.4,0-0.7,0-1.1,0c-0.1,0.1-0.3,0.2-0.5,0.2l2.7-0.2c-0.2,0.1-0.4,0.2-0.7,0.2c-0.2,0-0.4,0-0.5-0.1c-0.7,0.2-1.3,0.4-2,0.5
		l-0.3-0.1l-4.4,0.7c-0.2-0.1-0.4-0.1-0.6-0.1c-0.4,0.1-0.8,0.1-1.2,0.2l-2.1,0.9l0.2,0.3c0.2,0,0.3-0.1,0.4-0.2l0.8,0.1l-0.1,0.7
		c-0.6,0.2-1.1,0.7-1.2,1.3c-1,0.5-1.6,0.8-1.6,1v0.1h0.2l0.3-0.2l0.3,0.4v0.5c0,0.2-1.7,3.8-5.2,11c-3,6.9-4.6,10.7-4.8,11.4
		c-1,0.3-1.6,0.7-1.8,1.3c0,0.2,0.3,0.3,0.9,0.3v0.3L75.5,72v0.5c0,0.3,0.8,0.5,2.3,0.6c0-0.1,0-0.2,0.1-0.2c0,0.7-0.1,1.3-0.3,2H78
		c0.5-0.5,0.8-1.1,0.9-1.7H79c0.2,0,0.3,0.2,0.5,0.5c-0.2,0.1-0.9,1.6-2,4.4l0.2,0.3h0.2c1.4-3.5,2.2-5.4,2.6-5.8
		c1.8-0.2,4.9-0.5,9.3-1l0.3-0.2c0,0.1,0.1,0.1,0.1,0.1c0,0,0,0,0,0h0.3l0.3-0.2c0,0.1,0.1,0.1,0.1,0.1c0,0,0,0,0,0l3.3-0.3
		c0.9-0.1,1.3-0.3,1.3-0.8c0-0.1,0.5-0.3,1.6-0.4c0.2,0,0.3,0,0.5,0.1c0-0.1,0.5-0.2,1.6-0.3c0-0.6,0.2-0.9,0.5-0.9v-0.3
		c-0.3,0-0.7,0.1-1,0.2c-0.4,0-0.9-0.1-1.3-0.2c-0.1,0.1-0.3,0.1-0.4,0.2L94.5,69l-0.3,0.2c0-0.1-0.1-0.1-0.2-0.1h-0.1l-0.3,0.2
		c0-0.1-0.2-0.2-0.7-0.2l-0.3,0.2H92V69c3-0.3,4.5-0.7,4.4-1.2c0.1,0,0.3,0.1,0.3,0.2c0,0,0,0.1,0,0.1l0.9-0.2v-0.3l-7.2,0.2
		c0,0.1,0,0.2-0.1,0.2l-0.9-0.1c-0.2,0-0.4,0.1-0.6,0.2L88.5,68c-0.7,0-1.3,0.2-2,0.3c-0.7-0.1-1.3-0.1-2,0l-1.6,0.1l-0.8-0.1
		c0-0.5,0.9-2.8,2.8-7c0.3-1,0.8-1.9,1.5-2.6c0.2,0,0.3,0,0.5,0.1l1-0.4l0.6,0.1c1.2-0.1,2.3-0.4,3.4-0.8c0.3,0,0.5,0,0.8,0.1
		l0.9-0.2l2.6-0.2c1.2-0.1,2.4-0.4,3.6-0.7v-0.3c-0.5,0-0.7,0-0.8-0.2c0-0.4-0.4-0.5-1.1-0.5v-0.3l0.7-0.2l1.9-0.2v-0.3
		c-0.1,0-0.5,0-1.2,0v-0.3l0.7-0.1c0.2,0,0.3-0.1,0.3-0.3c-1,0-1.5,0-1.5-0.2c-6.8,0.3-10.2,0.4-10.3,0.2c-0.2,0-0.3,0.1-0.4,0.2
		L88.1,54c1.8-3.8,2.9-5.8,3.2-5.8c0,0.3-0.1,0.5-0.2,0.7V49h0.3c0.7-1.7,1.3-2.6,1.8-2.6c2.1-0.2-0.3-0.3,4.3-1
		c0.1,0.1,0.3,0.1,0.4,0.1c1.8-0.4,4.3-0.7,7.5-1.1v-0.3l-1.7,0.2V44c0.2,0,0.4-0.1,0.5-0.2v0.2c0.1,0,0.3-0.1,0.4-0.2
		c0.2,0,0.5,0,0.7,0.1c0.5-0.1,1-0.2,1.4-0.3l1.1-0.1c0.3-0.2,0.4-0.3,0.4-0.5v-0.1c-0.3,0-0.6,0-0.9-0.1c0-0.1,0.1-0.3,0.2-0.3
		c0,0,0,0,0,0l2-0.2l0.9-0.2c0,0.1,0.1,0.1,0.1,0.1c0.1,0,0.3-0.1,0.4-0.2h0.2c-0.2,0.4-0.3,0.7-0.4,1.1h-0.3c0-0.2-0.1-0.3-0.2-0.5
		H110c-2.4,6.8-3.5,9.9-5.7,15.1c-0.4,1.3-0.8,2.1-1.1,2.2c0,0.1,0.1,0.2,0.2,0.2c0,0,0,0,0.1,0c0.1,0.7-0.1,1.4-0.5,1.9
		c-1,3-1.7,4.6-2.1,4.9l0.2,1.4c0,0.1-0.1,0.2-0.2,0.2c0,0,0,0,0,0h-0.2c0-0.4-0.2-0.6-0.4-0.6h-0.1c-0.3,0.5-0.6,1.1-0.7,1.7h0.2
		c0.3-0.1,0.5-0.4,0.4-0.8h0.5l0.3,0.1c-0.2,0.2-0.3,0.5-0.3,0.8l0.1,0.2l-0.3,0.8v0.1c0.3,0,0.6,0.1,0.9,0.3c0.3,0,0.5-0.2,0.7-0.3
		c0.3,0,1.3,0,3.1,0l0.9-0.3c0.7,0,1.5,0,2.2-0.1h0.4l0.2-0.1v0.1c0.6-0.1,1.2,0,1.8,0.1v0.1h-0.6V71c0.2,0,0.3-0.1,0.4-0.2
		c0.1,0,0.2,0.1,0.2,0.2c-0.3,0-0.5,0.1-0.8,0.2l-0.2-0.1c-0.4,0.1-0.3,0.1-0.6,0.2l-0.4-0.1c0,0,0,0.1-0.1,0.1c0,0,0,0,0,0
		c0,0.1,0.1,0.2,0.2,0.2c0,0,0,0,0,0h0.4l2-0.2l0.8-0.2c0,0.1,0,0.1,0.1,0.1l0.4-0.1l0.7-0.1c0.5,0,0.5-0.1,1.7-0.3
		c0-0.1,0-0.1,0.1-0.1v0.1c0.8-0.1,1.6-0.2,2.3-0.4v0.1c0.5-0.1,0.2-0.1,0.3-0.2c0,0.1,0,0.1,0.1,0.1h0.3v-0.2h-0.7l0,0h-0.1h-0.1
		l0,0c-0.3,0-0.5,0.1-0.8,0.1l-1.7,0.1v-0.1l1-0.1h0.3l0.2-0.1V70c1.3-0.1,1.8,0.2,8-1.1c0.3,0,0.3-0.3,0.5-0.9
		c-0.1,0-0.2,0-0.3-0.1c-0.6,0.1-1.2,0.2-1.8,0.3c-0.1,0-0.2-0.1-0.2-0.2v-0.1h1C124.1,67.9,124.4,67.7,124.7,67.6
		c0,0-0.2,0.1-0.1,0.1L124.7,67.6z M78.9,68.3h-0.4c0.1-0.7,0.4-1.4,0.7-2h0.3C79.3,67,79.1,67.7,78.9,68.3z M79.4,66.2v-0.1
		c0-0.2,0.1-0.2,0.3-0.3V66C79.7,66.2,79.6,66.3,79.4,66.2L79.4,66.2z M85.2,70.7v0.1l-0.7,0.1v-0.1L85.2,70.7z M84.3,70.7
		c0,0.2-0.2,0.3-0.7,0.5l-0.9-0.1h-0.3v-0.3L84.3,70.7L84.3,70.7z M90.2,43.5h-0.4v-0.2c0-0.2,0.1-0.2,0.3-0.3h0.2l0.3,0.1
		C90.5,43.4,90.4,43.5,90.2,43.5C90.3,43.5,90.3,43.5,90.2,43.5L90.2,43.5z M96.9,42.2H97v0.3h-0.4C96.6,42.4,96.7,42.2,96.9,42.2
		C96.8,42.2,96.8,42.2,96.9,42.2L96.9,42.2z M95.2,42.8l-0.7-0.1v-0.1c0.6,0,1.1-0.1,1.7-0.3c0,0.1,0.1,0.1,0.3,0.1v0.3h-0.3
		c-0.2,0-0.4,0-0.5-0.1C95.6,42.7,95.4,42.8,95.2,42.8L95.2,42.8z M96,45.3v-0.1l1.1-0.1v0.1L96,45.3z M97.2,44.4v-0.2h0.5v0.2
		L97.2,44.4L97.2,44.4z M97.3,42.5h-0.1l0.1-0.3l1.2-0.1v0.2C98,42.3,97.6,42.4,97.3,42.5L97.3,42.5z M97.9,45.1v-0.3h0.5
		c0.2,0,0.3,0.1,0.3,0.2L97.9,45.1L97.9,45.1z M101,40.8l-0.7,0.2h-0.1c-0.4,0-0.8,0-1.3,0C99.9,40.9,100.7,40.9,101,40.8L101,40.8z
		 M100.3,43.8v0.1L99.4,44v-0.1C99.4,43.9,100.3,43.8,100.3,43.8z M101.8,44.5c0-0.1-0.2-0.2-0.6-0.2l-0.9,0.3h-0.7
		c-0.2-0.1-0.2-0.2-0.2-0.2h0.8l1.8-0.3h0.9v0.2c-0.4,0-0.8,0.1-1.2,0.2L101.8,44.5z M111.3,42h0.2c0.3-0.3,0.7-0.6,1.1-0.8
		c-0.2,1.2-0.7,2.3-1.6,3.3l-0.5-0.3C110.9,43.5,111.1,42.7,111.3,42L111.3,42z M109.7,44.8h0.1c-0.2,0.3-0.3,0.5-0.5,0.5v-0.3
		C109.5,44.9,109.6,44.8,109.7,44.8L109.7,44.8z M108.7,47.2c0.1-0.6,0.3-1.2,0.7-1.7v0.1c-0.1,0.9-0.3,1.4-0.6,1.5v0.6
		c-0.2,0.2-0.3,0.5-0.3,0.8h-0.1l-0.1-0.8C108.5,47.6,108.6,47.5,108.7,47.2L108.7,47.2z M108.3,48.6c0,0.3-0.1,0.7-0.3,1h-0.1v-0.3
		C108.1,48.8,108.3,48.6,108.3,48.6L108.3,48.6z M100.8,70.4L100.8,70.4l0.2-0.1v0.3C100.9,70.6,100.8,70.6,100.8,70.4L100.8,70.4z
		 M111.5,70.7c0-0.1,0-0.1-0.1-0.1l-0.6,0.1v-0.1h0.1l1.4-0.1v0.1C112,70.5,111.8,70.5,111.5,70.7L111.5,70.7z M110.8,70.4
		C110.9,70.4,110.8,70.4,110.8,70.4C110.8,70.4,110.8,70.4,110.8,70.4z M110.9,68.7l-0.8,0.1v-0.1l0.7-0.1l0.6-0.2
		c0,0.1,0,0.1,0.1,0.1c0.8-0.1,0.7-0.2,1-0.2c0.1,0,0.2,0.1,0.2,0.2L110.9,68.7L110.9,68.7z M113.7,68.4c-0.3-0.1-0.5-0.1-0.8-0.1
		v-0.1l0.7-0.1v0.1C113.6,68.3,113.8,68.3,113.7,68.4L113.7,68.4z M113.8,68.3L113.8,68.3l0.4-0.1v0.1H113.8z M114.6,68.2
		L114.6,68.2c0.1-0.1,0.2-0.2,0.3-0.2c0.2,0,0.3,0.1,0.3,0.2c0,0,0,0,0,0L114.6,68.2z M115.7,68.1V68h0.5v0.1L115.7,68.1L115.7,68.1
		z M116.4,68c0-0.1,0-0.2,0.2-0.2l0.2,0.2c0,0,0-0.1,0.1-0.1c0,0,0,0,0,0l0.1,0.2L116.4,68L116.4,68z M125.5,67L125.5,67L125.5,67z
		 M125.7,66.9c0.1,0,0.1-0.1-0.1-0.1s0.1,0.1-0.1,0.1V67L125.7,66.9l-0.2,0.1l0,0l-0.2,0.2l0.4-0.1l0,0L125.7,66.9L125.7,66.9z
		 M126.4,67.4L126.4,67.4l-0.1,0.2h0.6C126.9,67.5,126.5,67.4,126.4,67.4L126.4,67.4z"/>
</g>
</svg>
