<?xml version="1.0" encoding="utf-8"?>
<!-- Generator: Adobe Illustrator 23.0.6, SVG Export Plug-In . SVG Version: 6.00 Build 0)  -->
<svg version="1.1" id="Capa_1" xmlns="http://www.w3.org/2000/svg" xmlns:xlink="http://www.w3.org/1999/xlink" x="0px" y="0px"
	 viewBox="0 0 128 128" style="enable-background:new 0 0 128 128;" xml:space="preserve">
<style type="text/css">
	.st0{fill-rule:evenodd;clip-rule:evenodd;fill:#FFFFFF;}
</style>
<path class="st0" d="M21.2,114.8c0.5-0.4,0.9-0.9,1.2-1.5c0.3-0.6,0.5-1.2,0.5-1.8c0-0.2,0-0.5-0.1-0.8s-0.1-0.5-0.3-0.8
	c-0.1-0.3-0.3-0.6-0.5-0.9c-0.2-0.3-0.5-0.6-0.8-0.8c-0.3-0.3-0.7-0.5-1.2-0.7c-0.4-0.2-1-0.8-1.6-0.9c-0.6-0.1-1.4-0.6-2.1-0.6H9
	v19h6.8c1,0,2,0,2.8-0.2c0.9-0.2,1.6-0.3,2.1-0.6c0.6-0.2,1.1-0.5,1.5-0.9c0.4-0.3,0.8-0.7,1.1-1c0.3-0.3,0.5-0.7,0.6-1.1
	c0.2-0.4,0.3-0.7,0.3-1c0.1-0.3,0.1-0.6,0.1-0.9c0-1-0.3-1.9-0.9-2.7C22.9,115.8,22.2,115.2,21.2,114.8z M12,109h3.5
	c0.8,0,1.4,0.4,2,0.5c0.5,0.1,0.9,0.5,1.2,0.7c0.2,0.2,0.4,0.6,0.5,0.8c0.1,0.2,0.1,0.5,0.1,0.8l0,0.3c-0.1,1.2-1.3,1.9-3.1,2.2
	c-0.7,0.1-2.2,0.2-4.2,0.3C12,114.7,12,109,12,109z M20.9,120.5c-0.2,0.3-0.4,0.5-0.6,0.7c-0.2,0.2-0.5,0.3-0.9,0.5
	c-0.4,0.1-0.7,0.2-1,0.3c-0.3,0.1-0.7,0.1-1.1,0.1c-0.4,0-0.8,0-1,0l-0.9-0.1H12v-5.1c3-0.1,3.4-0.1,3.5-0.1c1.7,0,3.1,0.3,4.1,0.8
	c1,0.5,1.5,1.2,1.5,2.1C21.1,119.9,21.1,120.2,20.9,120.5z M43.3,107.8c-1.4-0.7-3.1-1.1-5-1.1c-1.9,0-3.5,0.4-5,1.1
	c-1.5,0.8-2.6,1.8-3.4,3.3c-0.8,1.4-1.2,3.1-1.2,4.9c0,1.5,0.3,2.9,0.8,4.1c0.5,1.2,1.2,2.2,2.1,2.9c0.9,0.7,1.9,1.3,3,1.7
	c1.1,0.4,2.3,0.6,3.6,0.6c1.9,0,3.6-0.4,5.1-1.2c1.5-0.8,2.6-1.9,3.4-3.4c0.8-1.4,1.2-3.1,1.2-5c0-1.8-0.4-3.5-1.2-4.8
	C45.9,109.6,44.8,108.5,43.3,107.8z M44.1,118.9c-0.4,0.8-0.9,1.5-1.5,2c-0.6,0.5-1.3,0.9-2,1.1c-0.7,0.2-1.5,0.4-2.2,0.4
	c-1.8,0-3.4-0.6-4.6-1.8c-1.2-1.2-1.8-2.8-1.8-4.8c0-0.8,0.1-1.6,0.4-2.3c0.2-0.7,0.6-1.3,1-1.7c0.4-0.5,0.9-0.9,1.4-1.2
	c0.5-0.3,1.1-0.6,1.7-0.7c0.6-0.1,1.2-0.2,1.8-0.2c0.6,0,1.2,0.1,1.8,0.2c0.6,0.2,1.2,0.4,1.7,0.7s1.1,0.7,1.5,1.2
	c0.4,0.5,0.8,1.1,1,1.8c0.3,0.7,0.4,1.5,0.4,2.4C44.7,117.1,44.5,118,44.1,118.9z M71.7,120l-4.3-14h-3l-5.3,14l-4.2-14h-3.4l6,19
	h3.1l5.2-13.9l4.4,13.9h3.1l7-19h-3.4L71.7,120z M84,125h13v-3H87v-5h9v-3h-9v-4h10v-4H84V125z M113.1,117.4
	c0.7-0.2,1.3-0.5,1.9-0.9c0.5-0.4,0.9-0.8,1.2-1.3c0.3-0.5,0.5-1,0.7-1.5c0.1-0.5,0.2-1.1,0.2-1.7c0-0.7-0.1-1.3-0.2-1.8
	c-0.2-0.5-0.4-1-0.6-1.3s-0.6-0.7-0.9-0.9c-0.4-0.3-0.7-0.5-1.1-0.6c-0.4-0.1-0.8-0.2-1.2-0.3c-0.5-0.1-0.8-0.6-1.2-0.6
	c-0.3,0-0.7-0.5-1.1-0.5H103v19h3v-7h3.3l5.1,7h4.2C118.6,125,113.1,117.4,113.1,117.4z M111.7,114.8c-0.4,0.1-0.8,0.1-1.2,0.2
	c-0.4,0-0.8,0-1.4,0H106v-5h3.7c2.6,0,3.9,0.8,3.9,2.5c0,0.5-0.1,0.8-0.3,1.1c-0.2,0.3-0.4,0.6-0.7,0.7S112.1,114.7,111.7,114.8z
	 M107.5,69.2c1.9-1.1,3.2-2.6,2.8-5.1c2-0.2,3.8-0.7,5.3-1.9c1.2-1,1.8-2.3,2.2-3.8c0.1-0.4,0.2-0.7,0.2-1.1v-3
	c0-0.5-0.1-0.9-0.2-1.4c-0.5-2.1-1.5-3.7-3.5-4.7c-3.7-1.9-7.6-2.9-11.6-3.8c-8.4-1.9-17-3.1-25.6-4.2c-1-0.1-2-0.2-3-0.4
	c0.3-2.8,1.3-3.7,4.7-4.4c0.3,0.8,0.7,1.6,1.1,2.4c0.2,0.3,0.5,0.7,0.8,0.7c5,0.1,9.7-0.8,13.5-4.3c3-2.8,4.3-6.4,5-10.3
	c0.3-1.4,0.5-2.8,0.7-4.2c0.7-4.4,3-8,5.9-11.2c0.1-0.2,0.3-0.3,0.5-0.6c-2.3-0.7-4.7-0.8-6.9-0.4C90.7,9.2,84.1,13.8,80,21.7
	l-0.1,0.2c-1.5-0.4-3-0.7-4.5-1.2c-0.3-0.1-0.5-0.6-0.6-0.9c-2.4-6.8-6.6-12.1-13.3-15c-2-0.9-4.3-1.1-6.4-1.7L54.8,3h-6.5
	c-1.4,0-2.8,0.5-4.3,0.8C27.1,7.3,13.9,20.6,10.8,37.7C7.5,55.9,12.5,72,24.5,86c1.8,2.1,4,3.8,6.5,5.1c4.6,2.3,9.7,0.6,12.1-4
	l0.2-0.3c1,2.7,2.1,5.2,3,7.9c0.9,2.6,3.9,3.8,5.8,3.6c0.4,0,0.8,0.2,1,0c1.7-1.3,3,0.8,4.5,0.8H60c1.7-1,3.3-1.4,4.4-2.9
	c0.1-0.2,0.7-0.2,1.1-0.2c2.1,0.2,4.1-0.3,5.9-1.5c1.5-1,2.5-2.4,2.6-4.2c1.9-0.6,3.1-2,3.2-4.3c0-1.2-0.1-2.6-0.6-3.7
	c-1.6-3.2-3.4-6.4-5.1-9.6l-0.1-0.3l0.3,0.1c2.5,1.2,5.2,1.8,8,1.6c1.8-0.1,2.9-0.7,3.8-2.1c2.2,1.6,4.7,2.3,7.5,2.1
	c2.7-0.2,5.3-0.8,6.7-3.5c1.9,0,3.9,0.2,5.8-0.1C104.9,70.5,106.3,69.9,107.5,69.2L107.5,69.2z M51.3,32.7c-3.2,0-5.7-2.5-5.7-5.7
	c0-3.2,2.6-5.7,5.7-5.7c3.2,0,5.6,2.6,5.6,5.7C57,30.2,54.5,32.7,51.3,32.7z M68.7,37.3c-0.7-1.7-1.3-3.5-1-5.5
	c-0.1-3,0.9-5.6,2.6-7.9c0.2-0.3,1-0.3,1.4-0.3c5.5,0.4,10.4,2.6,14.8,5.9c0.9,0.7,1.8,1.4,2.6,2.3c-1.7-0.4-3.5-0.8-5.2-1.1
	c-2.6-0.5-5.2-0.4-7.7,0.7c-2.7,1.2-5.5,1.1-8.3,1c1.5,1.4,3.4,1.3,5.2,1c1.5-0.2,3.1-0.7,4.7-1l0.1,0.9
	C77.9,33.1,68.7,37.3,68.7,37.3z"/>
</svg>
