<?xml version="1.0" encoding="utf-8"?>
<!-- Generator: Adobe Illustrator 23.0.6, SVG Export Plug-In . SVG Version: 6.00 Build 0)  -->
<svg version="1.1" id="Capa_1" xmlns="http://www.w3.org/2000/svg" xmlns:xlink="http://www.w3.org/1999/xlink" x="0px" y="0px"
	 viewBox="0 0 128 128" style="enable-background:new 0 0 128 128;" xml:space="preserve">
<style type="text/css">
	.st0{fill-rule:evenodd;clip-rule:evenodd;fill:#FFFFFF;}
</style>
<path class="st0" d="M124.8,65.6c-0.6-2.4-1.7-4.2-4-5.3c-4.2-2.1-8.6-3.3-13.1-4.3c-9.6-2.2-19.2-3.6-29-4.7
	c-1.1-0.1-2.2-0.3-3.4-0.4c0.4-3.1,1.5-4.2,5.3-5c0.4,0.9,0.7,1.9,1.2,2.7c0.2,0.3,0.6,0.7,0.9,0.7c5.6,0.1,11-0.9,15.3-4.9
	c3.4-3.1,4.9-7.2,5.7-11.6c0.3-1.6,0.6-3.2,0.8-4.8c0.7-5,3.4-9,6.7-12.6c0.2-0.2,0.3-0.4,0.5-0.7c-2.6-0.8-5.3-0.9-7.8-0.4
	c-9.9,1.8-17.3,7-22,16.1l-0.2,0.2c-1.7-0.4-3.4-0.8-5-1.3c-0.3-0.1-0.5-0.6-0.7-1c-2.7-7.7-7.4-13.7-15.1-17
	c-2.3-1-4.8-0.8-7.3-1.5c-0.1,0-0.2,0.2-0.4,0.2h-7.3c-1.6,0-3.2,0.1-4.8,0.4c-19.2,4-34.2,18.8-37.7,38.2
	c-3.7,20.7,1.9,38.7,15.5,54.5c2,2.4,4.5,4.3,7.4,5.7c5.3,2.6,11,0.7,13.7-4.5l0.2-0.4c1.2,3,2.4,5.9,3.4,8.9c1,2.9,4.5,4.2,6.6,4.1
	c0.4,0,0.9,0.3,1.2,0.1c1.9-1.4,3.4,0.9,5.1,0.9h2.7c1.9-1,3.7-1.7,4.9-3.4c0.2-0.2,0.8-0.3,1.3-0.2c2.4,0.3,4.7-0.3,6.7-1.7
	c1.7-1.1,2.8-2.7,3-4.8c2.2-0.6,3.5-2.3,3.6-4.8c0-1.4-0.1-2.9-0.7-4.1c-1.8-3.7-3.9-7.2-5.8-10.8l-0.2-0.3l0.4,0.2
	c2.9,1.4,5.9,2,9.1,1.8c2-0.2,3.3-0.8,4.3-2.4c2.5,1.8,5.4,2.6,8.5,2.4c3.1-0.2,6-0.9,7.6-3.9c2.2,0,4.4,0.2,6.6-0.1
	c1.5-0.2,3.1-0.9,4.4-1.6c2.2-1.2,3.7-3,3.2-5.8c2.2-0.2,4.3-0.7,6-2.1c1.4-1.1,2-2.6,2.5-4.3c0.1-0.4,0.2-0.8,0.2-1.2v-3.4
	C125,66.7,124.9,66.2,124.8,65.6L124.8,65.6z M49.5,42.7c-3.6,0-6.4-2.9-6.4-6.5c0-3.6,2.9-6.5,6.5-6.5c3.6,0,6.4,2.9,6.4,6.5
	C55.9,39.9,53.1,42.8,49.5,42.7z M69.1,47.9c-0.8-2-1.5-4-1.2-6.2c-0.2-3.4,1-6.3,3-8.9c0.3-0.3,1.1-0.4,1.6-0.4
	c6.3,0.4,11.7,3,16.8,6.6c1,0.8,2,1.6,2.9,2.6c-2-0.4-3.9-0.9-5.9-1.3c-3-0.6-5.9-0.4-8.7,0.8c-3,1.3-6.2,1.3-9.4,1.1
	c1.7,1.6,3.8,1.5,5.9,1.2c1.7-0.3,3.5-0.8,5.3-1.2l0.1,1C79.6,43.2,69.1,47.9,69.1,47.9z"/>
</svg>
