<?xml version="1.0" encoding="utf-8"?>
<!-- Generator: Adobe Illustrator 23.0.6, SVG Export Plug-In . SVG Version: 6.00 Build 0)  -->
<svg version="1.1" id="Capa_1" xmlns="http://www.w3.org/2000/svg" xmlns:xlink="http://www.w3.org/1999/xlink" x="0px" y="0px"
	 viewBox="0 0 128 128" style="enable-background:new 0 0 128 128;" xml:space="preserve">
<style type="text/css">
	.st0{fill:#FFFFFF;}
</style>
<g>
	<path class="st0" d="M124.8,52.1c-4.3-2.5-10-2.8-14.8-1.4c-0.6-5.2-4-9.7-8-12.9l-1.6-1.3L99,38.1c-2.7,3.1-3.5,8.3-3.1,12.3
		c0.3,2.9,1.2,5.9,3,8.3c-1.4,0.8-2.9,1.9-4.3,2.4c-2.8,1-5.9,2-8.9,2H79V49H66V24H51v12H26v13H13v14H1.8l-0.2,1.5
		c-0.5,6.4,0.3,12.6,3,18.5l1.1,2.2l0.1,0.2c7.9,13.4,21.7,19,36.8,19c29.2,0,53.3-13.1,64.3-40.6c7.4,0.4,15-1.8,18.6-8.9l0.9-1.8
		L124.8,52.1L124.8,52.1z M28,39h10v11H28V39z M41.1,83.2c0,1.7-1.4,3.1-3.1,3.1c-1.7,0-3.1-1.4-3.1-3.1s1.4-3.1,3.1-3.1
		C39.7,80.2,41.1,81.5,41.1,83.2z M28,52h10v11H28C28,63,28,52,28,52z M15,52h11v11H15V52z M42.7,102.2
		c-15.8-0.1-24.3-5.4-31.3-12.4c2.1,0.1,4.1,0.2,5.9,0.2c1.6,0,3.2,0,4.7-0.1c3.9-0.2,7.3-0.7,10.1-1.5c2.3,5.3,6.5,10.2,14,13.8
		H42.7z M51,63H40V52h11V63z M51,50H40V39h11V50z M64,63H53V52h11V63z M64,50H53V39h11V50z M64,37H53V26h11V37z M77,63H66V52h11V63z
		 M38.8,81.2C38.6,81.1,38.3,81,38,81c-1.2,0-2.2,1-2.2,2.2s1,2.2,2.2,2.2s2.2-1,2.2-2.2c0-0.3-0.1-0.6-0.2-0.8
		c-0.2,0.3-0.4,0.5-0.8,0.5c-0.5,0-0.9-0.4-0.9-0.9C38.4,81.6,38.6,81.3,38.8,81.2z"/>
</g>
</svg>
