<?xml version="1.0" encoding="utf-8"?>
<!-- Generator: Adobe Illustrator 23.0.6, SVG Export Plug-In . SVG Version: 6.00 Build 0)  -->
<svg version="1.1" id="Capa_1" xmlns="http://www.w3.org/2000/svg" xmlns:xlink="http://www.w3.org/1999/xlink" x="0px" y="0px"
	 viewBox="0 0 128 128" style="enable-background:new 0 0 128 128;" xml:space="preserve">
<style type="text/css">
	.st0{fill:#FFFFFF;}
</style>
<g>
	<path class="st0" d="M86,118.4c0-0.3,0.1-0.6,0-0.9c-0.2-0.3-0.3-0.5-0.5-0.7c-0.5-0.6-1-1.1-1.6-1.7l-5.9-6l4.6-4.7l2.5-2.7
		c0.4-0.4,0.9-1.2,0.9-1.8v-0.4c0-0.9-0.4-1.4-1.3-1.6l0.2,0.1h-0.7c-0.6,0-2.3,1.6-2.7,2.1c-1.5,1.5-2.5,2.9-4.5,4.4V92.6
		c0-1.1-0.6-1.6-1.7-1.6H75c-1.1,0-2,0.5-2,1.6v25.9c0,1.1,0.9,1.5,2,1.5h0.3c1.1,0,1.7-0.5,1.7-1.5v-4.6l3,2.9
		c0.9,0.9,1.8,1.5,2.6,2.3c0.4,0.4,1.2,0.9,1.8,0.9h0.3c1,0,1.3-0.5,1.5-1.3l-0.2,0.1C86,118.8,86,118.4,86,118.4z M125.1,98h-0.4
		c-2.2,0-4.2,0.6-6,1.9c-3,2.2-4.7,5.1-4.7,8.9v9.8c0,1.1,0.4,1.4,1.5,1.4h0.3c1.1,0,2.2-0.4,2.2-1.4v-9.2c0-2,0.4-3.9,1.9-5.4
		c1.2-1.2,2.7-2.2,4.4-2.2c1.3,0,2.8-0.3,2.8-1.9C127.1,98.7,126.2,98,125.1,98z M109.7,103c-1.1-1.8-2.6-3.2-4.5-4.1
		C101.7,97.2,98,97,94.6,99l-0.5,0.3c-1.4,0.8-2.6,1.8-3.5,3.1c-2.6,3.8-2.9,8.1-0.6,12.1l0.2,0.4c1,1.7,2.3,3.1,4,4
		c3.6,2,7.5,2.2,11.1,0.2l0.3-0.2c1-0.6,1.2-1.6,0.7-2.6c-0.2-0.4-0.6-0.7-1-0.9h-0.2c-0.7-0.1-2.6,0.7-3.3,1
		c-1.4,0.2-3,0.3-4.4-0.2l7.6-6.6c1.1-1,2.3-2.1,3.5-3c1-0.8,2-1.9,1.2-3.3C109.7,103.3,109.7,103,109.7,103z M102.8,106.6l-8.5,7.3
		c-0.3-0.3-0.5-0.7-0.7-1c-0.6-1-1-2.2-1-3.4c-0.1-3,1-5.5,3.7-7c2-1.2,4.2-1.4,6.4-0.6c1.1,0.4,2.4,1.1,3.1,2.1
		C104.8,104.9,103.7,105.7,102.8,106.6z M22,91h-0.3c-1.1,0-1.7,0.4-1.7,1.5v8.1c-2-1.8-4.4-2.5-7.2-2.5H12c-1.9,0-3.7,0.3-5.4,1.3
		C3,101.5,1,104.6,1,108.8v0.8c0,1.9,0.5,3.5,1.5,5.2c2.1,3.6,5.4,5.4,9.5,5.4h0.8c1.9,0,3.9-0.3,5.5-1.2c3.6-2.1,5.7-5.2,5.7-9.3
		v-17C24,91.4,23.1,91,22,91z M18.9,112.8c-1.5,2.5-3.7,3.9-6.6,3.9c-1.2,0-2.4-0.3-3.4-0.9c-2.6-1.4-4.1-3.7-4.1-6.7
		c0-1.1,0.2-2.1,0.7-3.1c1.4-2.9,3.7-4.5,6.9-4.5c1.6,0,3,0.5,4.2,1.4c2.1,1.5,3.3,3.5,3.3,6.1C20,110.4,19.6,111.6,18.9,112.8z
		 M37.6,98H37c-1.9,0-3.8,0.3-5.4,1.3c-3.6,2.1-5.6,5.2-5.6,9.4v0.8c0,1.9,0.5,3.5,1.5,5.2c2.1,3.6,5.4,5.4,9.6,5.4h0.8
		c1.9,0,3.8-0.3,5.5-1.2c3.6-2.1,5.7-5.2,5.7-9.3v-0.8c0-1.8-0.6-3.3-1.4-4.8C45.5,100,42,98,37.6,98z M44,112.8
		c-1.5,2.4-3.6,3.9-6.5,3.9c-1.3,0-2.6-0.3-3.8-1c-2.5-1.5-3.9-3.6-3.9-6.5c0-1.1,0.2-2.1,0.7-3.1c1.4-2.9,3.7-4.5,6.9-4.5
		c1.5,0,2.8,0.4,4,1.2c2.2,1.5,3.5,3.6,3.5,6.3C45,110.3,44.7,111.6,44,112.8z M68.5,99.4L68.5,99.4c-1.8-1-3.7-1.4-5.7-1.4H62
		c-1.9,0-3.8,0.3-5.4,1.3c-3.6,2.1-5.6,5.2-5.6,9.3v0.8c0,1,0.2,1.9,0.4,2.9c1.6,5.5,5.9,8.6,11.7,8.2c1.6-0.1,5.9-0.6,5.9-3v-0.4
		c0-0.9-0.7-1.7-1.5-1.9l-0.1-0.2h-0.7l-0.2,0.3c-0.9,0.4-2.4,1.2-3.4,1.2c-1.2,0-2.5,0-3.6-0.6c-2.9-1.4-4.6-3.7-4.6-6.9
		c0-1.1,0.2-2.1,0.7-3.1c1.4-2.8,3.7-4.6,6.9-4.5c0.6,0,1.7,0.3,2.3,0.6c0.5,0.2,1.8,1,2.4,1h0.2l0.1-0.2c0.9-0.2,1.6-0.9,1.6-1.8
		v-0.4c0-0.4-0.2-0.7-0.4-1L68.5,99.4L68.5,99.4z M5.8,68.2l0.1,0.2c7.9,13.4,21.7,19,36.8,19c29.2,0,53.3-13.1,64.3-40.6
		c7.4,0.4,15-1.8,18.6-8.9l0.9-1.8l-1.8-1c-4.3-2.5-10-2.8-14.8-1.4c-0.6-5.2-4-9.7-8-12.9l-1.6-1.3L99,21.1
		c-2.7,3.1-3.5,8.3-3.1,12.3c0.3,2.9,1.2,5.9,3,8.3c-1.4,0.8-2.9,1.9-4.3,2.4c-2.8,1-5.9,2-8.9,2H79V32H66V7H51v12H26v13H13v14H1.8
		l-0.2,1.5c-0.5,6.4,0.3,12.6,3,18.5C4.6,66,5.8,68.2,5.8,68.2z M66,35h11v11H66V35z M53,9h11v11H53V9z M53,22h11v11H53V22z M53,35
		h11v11H53V35z M40,22h11v11H40V22z M40,35h11v11H40V35z M41.1,66.2c0,1.7-1.4,3.1-3.1,3.1c-1.7,0-3.1-1.4-3.1-3.1s1.4-3.1,3.1-3.1
		C39.7,63.2,41.1,64.5,41.1,66.2z M28,22h10v11H28C28,33,28,22,28,22z M28,35h10v11H28C28,46,28,35,28,35z M15,35h11v11H15V35z
		 M17.4,73c1.6,0,3.2,0,4.7-0.1c3.9-0.2,7.3-0.7,10.1-1.5c2.3,5.3,6.5,10.2,14,13.8l-3.5,0.1c-15.8-0.1-24.3-5.4-31.3-12.4
		C13.5,73,15.5,73,17.4,73z M38,68.4c1.2,0,2.2-1,2.2-2.2c0-0.3-0.1-0.6-0.2-0.8c-0.2,0.3-0.4,0.5-0.8,0.5c-0.5,0-0.9-0.4-0.9-0.9
		c0-0.3,0.2-0.6,0.4-0.8C38.6,64.1,38.3,64,38,64c-1.2,0-2.2,1-2.2,2.2C35.9,67.4,36.8,68.4,38,68.4z"/>
</g>
</svg>
