<?xml version="1.0" encoding="utf-8"?>
<!-- Generator: Adobe Illustrator 23.0.6, SVG Export Plug-In . SVG Version: 6.00 Build 0)  -->
<svg version="1.1" id="facebook" xmlns="http://www.w3.org/2000/svg" xmlns:xlink="http://www.w3.org/1999/xlink" x="0px" y="0px"
	 viewBox="0 0 128 128" style="enable-background:new 0 0 128 128;" xml:space="preserve">
<style type="text/css">
	.st0{fill:#FFFFFF;}
</style>
<title>facebook-plain</title>
<path id="original-plain" class="st0" d="M116.4,5.1H11.6C8,5.1,5.1,8,5.1,11.6v104.8c0,3.6,2.9,6.5,6.5,6.5H68V77.3H52.7V59.5H68
	V46.4c0-15.2,9.3-23.5,22.9-23.5c4.6,0,9.2,0.2,13.7,0.7v15.9h-9.4c-7.4,0-8.8,3.5-8.8,8.7v11.4H104l-2.3,17.8H86.4v45.6h30
	c3.6,0,6.5-2.9,6.5-6.5V11.6C122.9,8,120,5.1,116.4,5.1z"/>
</svg>
