<?xml version="1.0" encoding="utf-8"?>
<!-- Generator: Adobe Illustrator 23.0.6, SVG Export Plug-In . SVG Version: 6.00 Build 0)  -->
<svg version="1.1" id="Capa_1" xmlns="http://www.w3.org/2000/svg" xmlns:xlink="http://www.w3.org/1999/xlink" x="0px" y="0px"
	 viewBox="0 0 128 128" style="enable-background:new 0 0 128 128;" xml:space="preserve">
<style type="text/css">
	.st0{fill:#FFFFFF;}
</style>
<path class="st0" d="M76,50.6c-7.7,0-11.5,4-11.5,9.8c0,3.7,1.9,6.3,4.3,7.5c-1.2,1.1-2.2,2.1-3.1,3c-0.9,1-1.5,2-1.5,3.1
	c0,1.4,0.6,2.6,2.2,3.3c-1.8,1.7-2.8,2.9-2.8,5.1c0,4,3.5,6.3,12.5,6.3c8.7,0,13.8-3.3,13.8-9c0-6.7-5.1-6.9-13.8-7.5l-4.9-0.3
	l1.7-2.7c0.9,0.2,2.4,0.4,4,0.4c6.3,0,10.7-3.3,10.7-8.8c0-2.3-1.1-3.9-2-5.1l4.4-0.3V51h-9.4C79.5,51,78.2,50.6,76,50.6z
	 M78.3,79.1c2.4,0.2,4.3,0.2,4.3,1.9c0,2.7-4,2.9-6.9,2.9c-3.5,0-6.1-0.6-6.1-2.6c0-1,0.7-1.9,1.3-2.7L78.3,79.1z M76.3,64.4
	c-3.3,0-4.7-1.7-4.7-4.2c0-3.3,2.1-4.6,4.8-4.6c2.9,0,4.6,1.6,4.6,4.5C81,62.7,79.1,64.4,76.3,64.4z M99.2,46.7
	c2.9,0,4.6-1.7,4.6-4.5c0-2.8-1.7-4.4-4.6-4.4c-2.9,0-4.5,1.6-4.5,4.4C94.7,45,96.3,46.7,99.2,46.7z M103,71.5V51h-9.7l-0.6,3.9
	l2.7,0.9c0.5,0.1,0.6,0.4,0.6,1v14.7c0,0.8-0.4,0.9-1.1,1L92,72.8V77h15v-4.2l-2.9-0.3C103.4,72.4,103,72.3,103,71.5z M125.4,70.4
	c-1.2,0.4-2.6,0.8-4,0.8c-2.7,0-3.4-1.2-3.4-4.1V55h7v-5h-6.6c-0.4,0-0.4,0-0.4-0.4V43h-4.8c-0.6,5-3.2,7.2-7.2,7.7V55h4
	c0.4,0,0,0.4,0,0.7v13.1c0,5.7,2.5,8.1,8.4,8.1c2.9,0,6.1-1,8.3-2C126.7,74.8,125.4,70.4,125.4,70.4z M29.7,38.8
	c-1.3-1.3-3.5-1.3-4.8,0l-4.8,4.8l6,6c1.4-0.5,3-0.2,4.1,1c1.1,1.1,1.4,2.7,1,4.1l5.8,5.8c1.4-0.5,3-0.2,4.1,1
	c1.6,1.6,1.6,4.1,0,5.7c-1.6,1.6-4.1,1.6-5.7,0c-1.2-1.2-1.6-2.9-1-4.4L29,57.3v14.3c0,0.2,0.9,0.4,1.2,0.8c1.6,1.6,1.6,4.1,0.1,5.7
	c-1.6,1.6-4.1,1.6-5.6,0c-1.6-1.6-1.5-4.1,0-5.7c0.4-0.4,0.3-0.7,1.3-0.9V57.1c-1-0.2-0.9-0.5-1.3-0.9c-1.2-1.2-1.5-2.9-0.9-4.4
	l-5.9-5.9L2.2,61.6c-1.3,1.3-1.3,3.5,0,4.8l22.9,22.9c1.3,1.3,3.5,1.3,4.8,0l22.8-22.8c1.3-1.3,1.3-3.5,0-4.8
	C52.6,61.7,29.7,38.8,29.7,38.8z"/>
</svg>
