<?xml version="1.0" encoding="utf-8"?>
<!-- Generator: Adobe Illustrator 23.0.6, SVG Export Plug-In . SVG Version: 6.00 Build 0)  -->
<svg version="1.1" id="google" xmlns="http://www.w3.org/2000/svg" xmlns:xlink="http://www.w3.org/1999/xlink" x="0px" y="0px"
	 viewBox="0 0 128 128" style="enable-background:new 0 0 128 128;" xml:space="preserve">
<style type="text/css">
	.st0{fill:#FFFFFF;}
</style>
<title>google</title>
<g id="plain">
	<path class="st0" d="M44.6,4.2c-33,11.5-50.5,47.5-39,80.5c6.9,19.8,23.1,34.9,43.4,40.4c10.6,2.7,21.7,2.9,32.4,0.3
		c9.7-2.2,18.6-6.8,25.9-13.5c7.6-7.1,13.2-16.2,16-26.3c3.1-10.9,3.6-22.4,1.6-33.6H65.3c0,8.2,0,16.5,0,24.7h34.5
		c-1.4,8-6,15-12.7,19.5c-4.2,2.8-9,4.7-13.9,5.5c-5,0.9-10.1,0.9-15.1,0c-5.1-1-9.8-3.1-14.1-6.1C37.2,91,32.2,84.2,29.5,76.3
		c-2.7-8-2.7-16.6,0-24.6c1.9-5.6,5-10.7,9.2-14.9c9.7-10,24.1-13.8,37.4-9.8c5.1,1.6,9.8,4.3,13.6,8c3.9-3.9,7.8-7.7,11.6-11.6
		c2-2.1,4.2-4.1,6.2-6.2c-5.9-5.5-12.8-9.8-20.4-12.6C73.5-0.4,58.4-0.5,44.6,4.2z"/>
</g>
</svg>
