<?xml version="1.0" encoding="utf-8"?>
<!-- Generator: Adobe Illustrator 23.0.6, SVG Export Plug-In . SVG Version: 6.00 Build 0)  -->
<svg version="1.1" id="google" xmlns="http://www.w3.org/2000/svg" xmlns:xlink="http://www.w3.org/1999/xlink" x="0px" y="0px"
	 viewBox="0 0 128 128" style="enable-background:new 0 0 128 128;" xml:space="preserve">
<style type="text/css">
	.st0{fill:#FFFFFF;}
</style>
<title>google</title>
<g id="plain-wordmark">
	<path id="path2998" class="st0" d="M31.9,57.9H17.1v4.4h10.5c-0.5,6.1-5.6,8.8-10.4,8.8c-6.5,0-11.7-5.2-11.7-11.7
		s5.2-11.7,11.7-11.7c2.9,0,5.8,1.1,7.9,3.2l3.1-3.2c-3-2.9-6.9-4.4-11.1-4.4C8.1,43.3,1,50.6,1,59.5c0.1,8.9,7.3,16,16.2,16
		c8.6,0,14.9-5.9,14.9-14.6C32.2,59.8,32.1,58.9,31.9,57.9L31.9,57.9z"/>
	<path id="path3000" class="st0" d="M43.9,54.7c-5.7,0-10.3,4.7-10.3,10.4c0,5.7,4.7,10.3,10.4,10.3c5.7,0,10.3-4.6,10.3-10.3
		c0.1-5.6-4.4-10.3-10.1-10.4C44.2,54.7,44,54.7,43.9,54.7z M44,58.8c3.5-0.2,6.4,2.4,6.6,5.9s-2.4,6.4-5.9,6.6s-6.4-2.4-6.6-5.9
		c0-0.1,0-0.3,0-0.4c-0.2-3.3,2.4-6.1,5.6-6.3C43.8,58.8,43.9,58.8,44,58.8z"/>
	<path id="path3005" class="st0" d="M66.6,54.7c-5.7,0-10.3,4.7-10.3,10.4s4.7,10.3,10.4,10.3c5.7,0,10.3-4.6,10.3-10.3
		c0.1-5.6-4.4-10.3-10.1-10.4C66.8,54.7,66.7,54.7,66.6,54.7z M66.6,58.8c3.5-0.2,6.4,2.4,6.6,5.9c0.2,3.5-2.4,6.4-5.9,6.6
		s-6.4-2.4-6.6-5.9c0-0.1,0-0.3,0-0.4c-0.2-3.3,2.4-6.1,5.6-6.3C66.4,58.8,66.5,58.8,66.6,58.8z"/>
	<path id="path3007" class="st0" d="M88.7,54.8c-5.6,0-9.9,4.9-9.9,10.3c-0.1,5.5,4.3,10.1,9.8,10.3c2.2,0.1,4.3-0.8,5.7-2.5v2
		c0,3.6-2.2,5.7-5.4,5.7c-2.3,0-4.4-1.5-5.3-3.6l-4,1.7c1.6,3.7,5.3,6.1,9.3,6.1c5.5,0,9.7-3.5,9.7-10.8V55.4h-4.3v1.8
		C92.9,55.6,90.8,54.7,88.7,54.8z M89.1,58.8c2.7,0,5.5,2.3,5.5,6.3s-2.8,6.3-5.6,6.3c-3.2-0.1-5.8-2.8-5.7-6c0-0.1,0-0.1,0-0.2
		C83.3,61.1,86.2,58.8,89.1,58.8z"/>
	<path id="path3011" class="st0" d="M117.9,54.7c-5.2,0-9.7,4.2-9.7,10.3c-0.2,5.5,4.1,10.2,9.6,10.4c0.2,0,0.4,0,0.5,0
		c3.5,0,6.7-1.7,8.7-4.5l-3.6-2.4c-1.1,1.8-3,2.9-5.1,2.8c-2.2,0.1-4.2-1.1-5.1-3.1l13.9-5.8l-0.7-1.7
		C125.2,57.2,121.8,54.8,117.9,54.7L117.9,54.7z M118.1,58.7c1.6-0.1,3.1,0.8,3.8,2.2l-9.3,3.9C112.5,61.6,114.9,58.9,118.1,58.7
		C118.1,58.7,118.1,58.7,118.1,58.7z"/>
	<path id="path3015" class="st0" d="M101.7,74.8h4.6V44.3h-4.6V74.8z"/>
</g>
</svg>
