<?xml version="1.0" encoding="utf-8"?>
<!-- Generator: Adobe Illustrator 23.0.6, SVG Export Plug-In . SVG Version: 6.00 Build 0)  -->
<svg version="1.1" id="Capa_1" xmlns="http://www.w3.org/2000/svg" xmlns:xlink="http://www.w3.org/1999/xlink" x="0px" y="0px"
	 viewBox="0 0 128 128" style="enable-background:new 0 0 128 128;" xml:space="preserve">
<style type="text/css">
	.st0{fill:#FFFFFF;}
</style>
<path class="st0" d="M14.9,18.3l2.7,4.5l2.5,4.2c1.3,2.2,2.6,4.3,3.9,6.5l2.7,4.4l3.9,6.5l4.7,7.9c1.4,2.3,2.7,4.6,4.1,6.9l0.2,0.3
	c0.2,0.1,0.4,0,0.5,0c1.8-0.4,3.6-0.9,5.4-1.3c2.9-0.7,5.9-1.4,8.8-2.1l4.6-1.1c3-0.7,5.9-1.4,8.9-2.1c3-0.7,6-1.4,9-2.2
	c1.5-0.4,3-0.7,4.5-1.1l8.8-2.1l9.6-2.3l0.5-0.1l-0.1-0.3c-0.9-1.2-1.7-2.5-2.6-3.7l-2.6-3.7l-2.8-3.9l-2.6-3.7l-2.6-3.7l-2.7-3.8
	l-2.6-3.7l-1.4-2c-0.2-0.3-0.4-0.6-0.5-1c-0.3-0.9,0-1.4,0.5-1.8c0.3-0.3,0.7-0.5,1.1-0.6c0.6-0.2,1.1-0.3,1.7-0.4
	c1.2-0.2,2.3-0.4,3.5-0.6c1.3-0.2,2.6-0.4,3.9-0.6c0.8-0.1,1.7-0.3,2.5-0.4l3.4-0.6c1.1-0.2,2.2-0.4,3.3-0.5l3.6-0.6l2.5-0.4
	c0.9-0.2,1.9-0.3,2.8-0.5c1.2-0.2,2.3-0.4,3.5-0.6c0.7-0.1,1.4-0.1,2.1,0.1c0.5,0.2,1,0.4,1.4,0.7l0.6,0.4c0.1-0.1,0-0.2-0.1-0.3
	c-0.9-1.8-2.1-3.3-3.6-4.6c-1.4-1.2-3-2.1-4.8-2.6c-1-0.3-2.1-0.5-3.2-0.6L103.8,1H24.6l-0.4,0.1c-1,0.1-1.9,0.2-2.8,0.5
	c-2,0.6-3.8,1.5-5.4,2.9c-0.9,0.8-1.7,1.7-2.4,2.7c-1.1,1.6-1.8,3.3-2.2,5.2l0.5,0.8C12.8,14.9,13.9,16.6,14.9,18.3L14.9,18.3z
	 M20.1,106.1c1,0.4,2,0.6,3,0.8l1,0c0.2,0,0.3,0.1,0.5,0.1h32.3c-0.1,0-0.1-0.1-0.2-0.2c-1.3-2.2-2.6-4.3-3.8-6.5
	c-1.6-2.7-3.1-5.5-4.7-8.2c-1.7-2.9-3.3-5.9-5-8.8c-1.6-2.8-3.1-5.6-4.7-8.4c-0.9-1.7-1.9-3.4-2.8-5.1l-0.3-0.4l-0.5,0.1
	c-0.9,0.2-1.8,0.5-2.7,0.7c-1.3,0.3-2.5,0.7-3.8,1c-2.8,0.7-5.7,1.5-8.5,2.2c-2.9,0.7-5.7,1.5-8.6,2.2c-0.2,0,0.5,0.1-0.5,0.1v17.9
	c1,0.1,0.1,0.3,0.2,0.5c0.1,0.5,0.1,1.1,0.2,1.6c0.3,2,1.1,3.7,2.2,5.4C15.2,103.4,17.4,105.1,20.1,106.1z M14,65.8
	c3.3-0.8,6.7-1.6,10-2.4l4.4-1c0.7-0.2,1.5-0.3,2.2-0.5c0.6-0.2,0.7-0.4,0.4-1c-0.5-0.8-1-1.7-1.5-2.5l-4.3-7.4L21,43.5
	c-1.5-2.5-2.9-5-4.4-7.5l-3.7-6.4l-1.6-2.8c-0.1-0.2,0.7-0.4-0.3-0.5v40.1c0,0,0.2-0.1,0.3-0.1C11.3,66.4,14,65.8,14,65.8z
	 M116.7,94.4c-1.3,0.5-2.6,0.9-3.9,1.4c-3,1.1-6,2.1-8.9,3.2c-1.7,0.6-3.3,1.2-5,1.8c-3.4,1.2-6.7,2.4-10.1,3.6
	c-2,0.7-3.9,1.3-5.9,2c-0.5,0.2-1.1,0.5-1.6,0.5h22.4l0.5,0c0.6,0,1.1-0.1,1.7-0.2c2.3-0.4,4.4-1.4,6.2-2.8c1.4-1.1,2.5-2.5,3.4-4
	c0.9-1.6,1.5-3.3,1.7-5.2c0-0.2,0.1-0.3-0.1-0.5C117,94.3,116.8,94.4,116.7,94.4L116.7,94.4z M114.8,64.3c-1-1.4-2-2.7-3-4.1
	c-1.4-1.9-2.7-3.7-4.1-5.6c-0.6-0.8-1.1-1.5-1.7-2.3c-0.2-0.2-0.3-0.3-0.6-0.2l-0.1,0c-2.5,0.6-5,1.2-7.5,1.8l-4.5,1.1l-8.8,2.1
	c-2.9,0.7-5.8,1.4-8.7,2.1c-3,0.7-6,1.5-9,2.2c-3,0.7-5.9,1.4-8.9,2.2c-2.9,0.7-5.7,1.4-8.6,2.1c-1.5,0.4-3,0.7-4.5,1.1
	c-0.2,0.1-0.5,0.1-0.7,0.2l0.2,0.4c1.3,2.2,2.5,4.4,3.8,6.6c1.4,2.5,2.9,5,4.3,7.4c1.6,2.7,3.2,5.4,4.8,8.2c0.9,1.6,1.8,3.1,2.7,4.7
	c1,1.7,2.1,3.5,3.1,5.2c0.3,0.5,0.7,1,1,1.5c0.2,0.3,0.5,0.6,0.9,0.8c0.4,0.2,0.8,0.3,1.2,0.2c0.2,0,0.4-0.1,0.6-0.2l0.8-0.3
	c2.7-0.9,5.5-1.9,8.2-2.8c2.1-0.7,4.3-1.5,6.4-2.2c2.1-0.7,4.3-1.4,6.4-2.2c2.1-0.7,4.2-1.4,6.3-2.1c2.2-0.7,4.3-1.5,6.5-2.2
	c2.6-0.9,5.3-1.8,7.9-2.7c2.6-0.9,5.1-1.7,7.7-2.6c0.2-0.1,0.3-0.1,0.5-0.2l0-0.4c0-5.3,0-10.6,0-15.9c0-0.3-0.1-0.5-0.2-0.7
	C116.3,66.5,115.5,65.4,114.8,64.3L114.8,64.3z M114.3,14.4c-0.6-0.8-1.4-1-2.3-0.8c-0.4,0.1-0.8,0.2-1.2,0.2
	c-1.4,0.2-2.7,0.5-4.1,0.7c-2,0.4-4,0.7-5.9,1.1c-1.6,0.3-3.1,0.6-4.7,0.8l-6.3,1.1c-0.3,0-0.5,0.1-0.8,0.2
	c-0.4,0.1-0.5,0.4-0.3,0.7c0.1,0.3,0.3,0.6,0.5,0.8c1.3,1.8,2.6,3.6,3.9,5.4c1.8,2.5,3.6,4.9,5.4,7.4c1.5,2.1,3,4.2,4.6,6.2
	c1.2,1.6,2.4,3.3,3.6,4.9l0.2,0.3c3.4-0.9,6.9-1.7,10.4-2.6l0-0.5c0-7.2,0-14.4,0-21.6c0-0.3-0.1-0.6-0.3-0.8
	c-0.9-1.1-1.7-2.2-2.6-3.3L114.3,14.4z M117.1,49.3c-1.6,0.4-3.1,0.7-4.8,1.2c0.2,0.3,4.6,6.3,4.8,6.5l0.2,0.1l0-0.4v-2.5
	c0-1.5,0-2.9,0-4.4c0-0.2,0-0.4-0.1-0.5L117.1,49.3z M12.9,127v-17.1h3.6V124h6.9v3C23.5,127,12.9,127,12.9,127z M37,127l-1.2-4.1
	h-6.2l-1.2,4.1h-3.9l6-17.2h4.4l6.1,17.2C40.9,127,37,127,37,127z M34.9,119.9c-1.1-3.7-1.8-5.8-1.9-6.3s-0.2-0.9-0.3-1.1
	c-0.3,1-1,3.5-2.2,7.4H34.9z M46.7,120.4v6.6H43v-17.1h5c2.3,0,4.1,0.4,5.2,1.3s1.7,2.1,1.7,3.9c0,1-0.3,1.9-0.8,2.7
	s-1.3,1.4-2.4,1.8c2.6,3.9,4.3,6.3,5,7.5h-4l-4.1-6.6L46.7,120.4L46.7,120.4z M46.7,117.5h1.2c1.1,0,2-0.2,2.5-0.6s0.8-1,0.8-1.8
	c0-0.8-0.3-1.4-0.8-1.7s-1.4-0.5-2.6-0.5h-1.1C46.7,112.8,46.7,117.5,46.7,117.5z M69.4,127l-1.2-4.1h-6.2l-1.2,4.1h-3.9l6-17.2h4.4
	l6.1,17.2H69.4z M67.3,119.9c-1.1-3.7-1.8-5.8-1.9-6.3s-0.2-0.9-0.3-1.1c-0.3,1-1,3.5-2.2,7.4H67.3z M85.2,109.9h3.7L83.1,127h-4
	l-5.8-17.1H77l3.2,10.2c0.2,0.6,0.4,1.3,0.6,2.1s0.3,1.4,0.4,1.7c0.1-0.7,0.4-2,0.9-3.8C82,120.1,85.2,109.9,85.2,109.9z M100.9,127
	H91v-17.1h9.9v3h-6.2v3.8h5.8v3h-5.8v4.4h6.2V127z M104.5,127v-17.1h3.6V124h6.9v3C115.1,127,104.5,127,104.5,127z"/>
</svg>
