<?xml version="1.0" encoding="utf-8"?>
<!-- Generator: Adobe Illustrator 23.0.6, SVG Export Plug-In . SVG Version: 6.00 Build 0)  -->
<svg version="1.1" id="Capa_1" xmlns="http://www.w3.org/2000/svg" xmlns:xlink="http://www.w3.org/1999/xlink" x="0px" y="0px"
	 viewBox="0 0 128 128" style="enable-background:new 0 0 128 128;" xml:space="preserve">
<style type="text/css">
	.st0{fill-rule:evenodd;clip-rule:evenodd;fill:#FFFFFF;}
</style>
<path class="st0" d="M16.9,1.7c-1.1,0.1-2.2,0.1-3.3,0.4c-2.4,0.7-4.5,1.7-6.4,3.3c-1.1,0.9-2.1,2-2.9,3.2c-1.3,1.9-2.1,3.9-2.5,6.1
	C2,15,2.2,15.3,2.4,15.6c1.2,2,2.4,4.1,3.7,6.1l3.2,5.3c1,1.6,2,3.3,3,4.9l4.6,7.7c1,1.7,2.1,3.5,3.1,5.2c1.5,2.5,3.1,5.1,4.6,7.6
	l5.6,9.4c1.6,2.7,3.2,5.4,4.9,8.1l0.2,0.3c0.2,0.1,0.4,0,0.6,0c2.1-0.5,4.3-1,6.4-1.5c3.5-0.8,6.9-1.7,10.4-2.5L58,65
	c3.5-0.8,7-1.7,10.5-2.5c3.5-0.8,7.1-1.7,10.6-2.5c1.8-0.4,3.6-0.9,5.4-1.3c3.5-0.8,6.9-1.7,10.4-2.5l11.3-2.7l0.6-0.2l-0.2-0.3
	l-3.1-4.4l-3-4.3l-3.3-4.6l-3.1-4.4L91,31l-3.2-4.5c-1-1.5-2.1-2.9-3.1-4.4l-1.6-2.3c-0.3-0.4-0.5-0.7-0.6-1.2c-0.3-1,0-1.7,0.6-2.2
	c0.4-0.3,0.8-0.6,1.3-0.7c0.7-0.2,1.3-0.4,2-0.5c1.4-0.3,2.7-0.5,4.1-0.7l4.6-0.8c1-0.2,1.9-0.3,2.9-0.5c1.3-0.2,2.7-0.4,4-0.7
	c1.3-0.2,2.6-0.4,3.9-0.6l4.2-0.7l2.9-0.5c1.1-0.2,2.2-0.4,3.3-0.6c1.4-0.2,2.8-0.5,4.2-0.7c0.8-0.1,1.7-0.2,2.5,0.1
	c0.6,0.2,1.2,0.5,1.7,0.8l0.7,0.5c0.1-0.2,0-0.3-0.1-0.4c-1-2.1-2.5-3.9-4.3-5.4c-1.7-1.4-3.6-2.4-5.6-3.1c-1.2-0.4-2.5-0.2-3.8-0.3
	 M55.7,127c-0.1,0-0.1-0.4-0.2-0.6c-1.5-2.6-3-5.3-4.5-7.9c-1.9-3.2-3.7-6.5-5.6-9.7c-2-3.5-3.9-7-5.9-10.5
	c-1.9-3.3-3.7-6.6-5.5-9.9c-1.1-2-2.2-4-3.3-6l-0.3-0.5L29.9,82c-1.1,0.3-2.1,0.6-3.2,0.8c-1.5,0.4-3,0.8-4.5,1.2
	c-3.3,0.9-6.7,1.7-10,2.6c-3.4,0.9-7,1.8-10.4,2.7C1.6,89.4,2,89.4,1,89.4v21.1c0.4,0.7,0.4,0.3,0.4,0.6c0.1,0.6,0.2,1.3,0.3,1.9
	c0.4,2.3,1.3,4.4,2.7,6.4c2,2.8,4.6,4.8,7.8,6.1c1.1,0.4,2.3,0.8,3.6,0.9l1.2,0.3"/>
<path class="st0" d="M5,77.7c3.9-0.9,7.9-1.9,11.8-2.8c1.7-0.4,3.5-0.8,5.2-1.2c0.9-0.2,1.7-0.4,2.6-0.6c0.8-0.2,0.9-0.5,0.5-1.1
	c-0.6-1-1.1-2-1.7-3l-5.1-8.7l-5.1-8.7c-1.7-3-3.4-5.9-5.2-8.9c-1.5-2.5-2.9-5.1-4.4-7.6c-0.6-1.1-1.4-2.2-2-3.3
	C1.5,31.6,2,31.3,1,31.2v47.4c0,0,0.5-0.1,0.6-0.1C1.6,78.5,5,77.7,5,77.7z M126.2,111.6c-1.5,0.5-3.1,1.1-4.6,1.7
	c-3.5,1.3-7,2.5-10.5,3.8c-2,0.7-3.9,1.4-5.9,2.1c-4,1.4-8,2.8-11.9,4.3c-2.3,0.8-4.6,1.8-6.9,2.7c-0.6,0.2-1.3,0.9-1.9,0.9h26.5
	l0.6-0.3c0.7,0,1.3-0.2,2-0.3c2.7-0.5,5.2-1.7,7.3-3.4c1.7-1.3,3-2.9,4.1-4.8c1.1-1.9,1.7-3.9,2-6.1c0-0.2,0.1-0.4-0.1-0.6
	C126.6,111.4,126.4,111.5,126.2,111.6z M123.9,76c-1.2-1.6-2.3-3.2-3.5-4.8c-1.6-2.2-3.2-4.4-4.8-6.6c-0.7-0.9-1.3-1.8-2-2.7
	c-0.2-0.3-0.4-0.3-0.7-0.3l-0.2,0c-3,0.7-5.9,1.4-8.9,2.2l-5.3,1.3c-3.5,0.8-6.9,1.7-10.4,2.5c-3.4,0.8-6.8,1.7-10.3,2.5l-10.7,2.6
	c-3.5,0.8-7,1.7-10.5,2.6l-10.1,2.5c-1.8,0.4-3.6,0.9-5.4,1.3c-0.3,0.1-0.5,0.1-0.8,0.3l0.2,0.5c1.5,2.6,3,5.2,4.5,7.8
	c1.7,2.9,3.4,5.9,5.1,8.8c1.9,3.2,3.8,6.4,5.6,9.6c1.1,1.8,2.2,3.7,3.2,5.5c1.2,2,2.4,4.1,3.7,6.1c0.4,0.6,0.8,1.2,1.2,1.8
	c0.3,0.4,0.6,0.7,1,1c0.4,0.3,0.9,0.3,1.4,0.2c0.2-0.1,0.5-0.1,0.7-0.2l0.9-0.3c3.2-1.1,6.5-2.2,9.7-3.3c2.5-0.9,5.1-1.7,7.6-2.6
	c2.5-0.9,5-1.7,7.5-2.5l7.5-2.5c2.5-0.9,5.1-1.7,7.6-2.6c3.1-1.1,6.3-2.1,9.4-3.2c3-1,6-2,9-3.1c0.2-0.1,0.4-0.1,0.5-0.3l0-0.4
	c0-6.3,0-12.5,0-18.8c0-0.3-0.1-0.6-0.3-0.9C125.8,78.6,124.9,77.3,123.9,76L123.9,76z M123.4,17.1c-0.7-0.9-1.6-1.2-2.7-0.9
	c-0.5,0.1-1,0.2-1.5,0.3c-1.6,0.3-3.2,0.6-4.8,0.9c-2.3,0.4-4.7,0.9-7,1.3c-1.8,0.3-3.7,0.7-5.5,1l-7.4,1.3
	c-0.3,0.1-0.6,0.1-0.9,0.2c-0.4,0.1-0.6,0.4-0.4,0.8c0.2,0.3,0.4,0.7,0.6,1c1.5,2.1,3.1,4.2,4.6,6.3c2.1,2.9,4.2,5.8,6.4,8.7
	c1.8,2.5,3.6,4.9,5.4,7.4c1.4,1.9,2.8,3.9,4.2,5.8l0.3,0.3l12.3-3l0-0.6c0-8.5,0-17,0-25.5c0-0.4-0.1-0.7-0.3-1
	c-1-1.3-2-2.6-3.1-3.9C123.7,17.4,123.4,17.1,123.4,17.1z M126.7,58.4c-1.9,0.4-3.7,0.9-5.6,1.4c0.2,0.4,5.4,7.4,5.7,7.7l0.2,0.1
	l0-0.4l0-3c0-1.7,0-3.4,0-5.2c0-0.2,0.1-0.4-0.1-0.6C127,58.4,126.7,58.4,126.7,58.4z"/>
</svg>
