<?xml version="1.0" encoding="utf-8"?>
<!-- Generator: Adobe Illustrator 23.0.6, SVG Export Plug-In . SVG Version: 6.00 Build 0)  -->
<svg version="1.1" id="Capa_1" xmlns="http://www.w3.org/2000/svg" xmlns:xlink="http://www.w3.org/1999/xlink" x="0px" y="0px"
	 viewBox="0 0 128 128" style="enable-background:new 0 0 128 128;" xml:space="preserve">
<style type="text/css">
	.st0{fill:#FFFFFF;}
</style>
<path class="st0" d="M125.5,122.8l-2.6-2.5c-2.5-3.3-5.7-6.2-9-8.6c-2.7-1.9-8.7-4.5-9.8-7.6l-0.2-0.2c1.9-0.2,4.1-0.9,5.8-1.4
	c2.9-0.8,5.4-0.6,8.4-1.4c1.4-0.4,2.9-0.8,3.9-1.2v-0.8c-1-1.6-2.4-3.7-4.1-5.1c-4.4-3.7-9-7.4-14-10.5c-2.7-1.7-6-2.8-8.9-4.3
	c-1-0.5-2.7-0.7-3.3-1.6c-1.5-1.9-2.3-4.4-3.5-6.6c-2.4-4.7-4.8-9.9-7-14.8c-1.5-3.4-2.4-6.7-4.3-9.8c-8.9-14.6-18.4-23.4-33.2-32
	c-3.1-1.8-6.9-2.6-10.9-3.5c-2.1-0.1-4.3-0.3-6.4-0.4c-1.3-0.5-2.7-2.1-3.9-2.9C17.6,4.6,5-2.2,1.4,6.7c-2.3,5.6,3.4,11,5.5,13.9
	c1.4,2,3.3,4.2,4.3,6.4c0.7,1.5,0.8,2.9,1.4,4.5c1.4,3.8,2.7,8,4.5,11.5c0.9,1.8,1.9,3.7,3.1,5.3c0.7,1,2,1.4,2.1,2.9
	c-1.2,1.7-1.3,4.3-2,6.4c-3,9.6-1.9,21.6,2.5,28.7c1.4,2.2,4.6,6.9,9,5.1c3.9-1.6,3.2-6.4,4.3-10.7c0.2-1-0.2-1.7,0.8-2.3v0.2
	c1,2.3,2.1,4.7,3.3,7c2.6,4.2,6.9,8.6,10.8,11.5c2,1.5,3.9,4.2,5.9,5.1V102h0.2c-0.5-1-1.3-1.2-2-1.8c-1.5-1.5-3.2-3.4-4.5-5.1
	c-3.6-4.8-6.7-10.1-9.6-15.6c-1.4-2.6-2.6-5.5-3.7-8.2c-0.4-1-0.4-2.6-1.4-3.1c-1.3,2-3.1,3.5-4.1,5.9c-1.6,3.7-1.8,8.2-2.3,12.9
	c-0.3,0.1-0.2,0-0.4,0.2c-2.7-0.7-3.7-3.5-4.7-5.9c-2.6-6.1-3-15.8-0.8-22.8c0.6-1.8,3.2-7.5,2.1-9.2c-0.5-1.7-2.2-2.6-3.1-3.9
	c-1.2-1.6-2.3-3.6-3.1-5.5c-2.1-4.7-3.1-10-5.3-14.8c-1.1-2.3-2.8-4.6-4.3-6.6c-1.6-2.3-3.4-3.9-4.7-6.6c-0.4-1-1.1-2.5-0.4-3.5
	c0.2-0.7,0.5-1,1.2-1.2c1.1-0.9,4.3,0.3,5.5,0.8c3.1,1.3,5.7,2.5,8.4,4.3c1.3,0.8,2.6,1.9,4.1,2.9H26c2.7,0,5.8,0.2,8.4,1
	c4.5,1.4,8.6,3.5,12.3,5.9C57.9,29,67.1,39.1,73.4,51.2c1,1.9,1.4,3.8,2.3,5.9c1.8,4.2,4.1,8.4,5.9,12.5c1.8,4.1,3.5,8.1,6.1,11.5
	c1.3,1.8,6.5,2.7,8.8,3.7c1.6,0.7,4.3,1.4,5.9,2.3c3,1.8,5.8,3.9,8.6,5.9c1.4,1,5.6,3.1,5.9,4.9c-6.9-0.2-12.1,0.5-16.6,2.3
	c-1.3,0.5-3.3,0.6-3.5,2.1c0.7,0.7,0.8,1.8,1.4,2.7c1.1,1.7,2.9,4.1,4.5,5.3c1.8,1.3,3.6,2.8,5.5,3.9c3.4,2,7.1,3.2,10.3,5.3
	c1.9,1.2,4,2.7,5.8,4.1c0.9,0.7,0.9,1.7,2.9,2.1v-0.2C126,124.7,126.1,123.6,125.5,122.8z M29.5,23.5c-1.4,0-2.5,0.2-3.5,0.4V24h0.2
	c0.7,1,1.9,2.3,2.7,3.5l2,4.1l0.2-0.2c1.2-0.9,1.8-2.2,1.8-4.3c-0.5-0.5-0.6-1.1-1-1.8C31.3,24.6,30.2,24.1,29.5,23.5z"/>
</svg>
