<?xml version="1.0" encoding="utf-8"?>
<!-- Generator: Adobe Illustrator 23.0.6, SVG Export Plug-In . SVG Version: 6.00 Build 0)  -->
<svg version="1.1" id="Capa_1" xmlns="http://www.w3.org/2000/svg" xmlns:xlink="http://www.w3.org/1999/xlink" x="0px" y="0px"
	 viewBox="0 0 128 128" style="enable-background:new 0 0 128 128;" xml:space="preserve">
<style type="text/css">
	.st0{fill:#FFFFFF;}
</style>
<g>
	<path class="st0" d="M21.8,31.9C26.6,34.2,53.4,45,57.6,47s7.2,2,12.6-0.7c5.3-2.8,30.5-13.1,35.3-15.6c2.5-1.3,3.6-2.3,3.6-3.2
		v-9.1c0-0.9-1.2-1.7-3.6-2.6L71,2.4c-4.8-1.8-6.7-1.7-12.3,0.3c-5.7,2-32.3,12.5-37,14.3c-2.3,0.9-3.6,1.8-3.6,2.7H18v9.1
		C18,29.8,19.4,30.8,21.8,31.9z M65.4,33.2l-14.7-6.1l21.1-3.2L65.4,33.2z M97.3,18.7l-12.5,4.9l-1.3,0.5l-12.4-4.9l13.8-5.5
		L97.3,18.7z M60.8,9.7l-2-3.8l6.3,2.5l6-2l-1.6,3.9l6.1,2.3l-7.9,0.8l-1.8,4.2L63.1,13L54,12.2C54,12.2,60.8,9.7,60.8,9.7z
		 M45.1,15c6.2,0,11.3,2,11.3,4.4s-5,4.4-11.3,4.4c-6.2,0-11.3-2-11.3-4.4S38.9,15,45.1,15z M21.8,47.5c4.8,2.3,31.6,13.1,35.8,15.1
		s7.2,2,12.6-0.7c5.3-2.8,30.5-13.1,35.3-15.6c2.5-1.3,3.6-2.3,3.6-3.2V34c0,0.9-1.2,1.8-3.5,3.1c-4.8,2.5-30,12.9-35.3,15.6
		c-5.3,2.8-8.3,2.8-12.5,0.7c-4.2-2-31.1-12.8-35.9-15.1c-2.4-1.1-3.8-2.1-3.8-3v9.2C18,45.4,19.4,46.3,21.8,47.5L21.8,47.5z
		 M21.8,62.5c4.8,2.3,31.6,13.1,35.8,15.1s7.2,2,12.6-0.7c5.3-2.8,30.5-13.1,35.3-15.6c2.5-1.3,3.6-2.3,3.6-3.2V49
		c0,0.9-1.2,1.8-3.5,3.1c-4.8,2.5-30,12.9-35.3,15.6c-5.3,2.8-8.3,2.8-12.5,0.7c-4.2-2-31.1-12.8-35.9-15.1c-2.4-1.1-3.8-2.1-3.8-3
		v9.2C18,60.3,19.4,61.3,21.8,62.5z M21.4,97.6c0-1.9-1.5-3.4-3.5-3.4c-3.3-0.1-6.2,1.1-8.4,2.6C9,97,9,97.6,8,98v-0.5
		c0-1.9-1.6-3.4-3.6-3.4c-1.9,0-3.4,1.5-3.4,3.4v25.9c0,1.9,1.5,3.5,3.4,3.5c2,0,3.6-1.6,3.6-3.5V111c1-0.9,1.2-3.4,2.8-5.5
		c0.8-1.3,1.8-2.4,3.1-3.2c1.1-0.9,2.5-1.3,4-1.3C19.9,101.1,21.4,99.4,21.4,97.6z M35.3,94.1c-9,0-15.9,7.5-16,16.5
		c0.1,9,7.1,16.4,16.1,16.5c4.7,0,8.6-1.4,11.8-4.3c1.5-1.4,0.9-3.4,0-4.3c-0.9-1.1-3.5-1.3-4.9,0.2c-1.6,1.3-4.5,1.8-6.8,1.6
		c-2.3-0.2-4.9-1.3-6.3-2.9c-1.2-1.1-1.9-3.3-2.2-4.3h20.9c1.8,0,3-1.1,3.2-2.7c0.1-0.1-0.1-0.5-0.1-0.6v-0.3
		C51,100.5,43.9,94.1,35.3,94.1L35.3,94.1z M26.6,107c0.5-2,3.3-6.7,8.9-7c5.7,0.5,9.1,5,9.7,7C45.2,107,26.6,107,26.6,107z
		 M85,110.6V84.5c0-1.9-1.5-3.6-3.5-3.6S78,82.5,78,84.5v12.4c-3-1.7-5.7-2.8-8.9-2.8c-8.9,0-16.1,7.5-16.1,16.5
		c0,8.9,7.1,16.4,16,16.4c3.3,0,6.4-1.1,8.9-2.8c0.3,1.6,1.7,2.8,3.5,2.8c2,0,3.6-1.6,3.6-3.6V110.6z M75.1,117.1
		c-1.6,1.7-3.8,2.7-6.2,2.7c-2.4,0-4.5-1-6.2-2.7c-1.6-1.6-2.6-4-2.6-6.5c0-2.6,1-5,2.6-6.6c1.6-1.7,3.8-2.7,6.2-2.7s4.5,1,6.2,2.7
		c1.6,1.6,2.6,4,2.6,6.6C77.8,113.1,76.8,115.5,75.1,117.1z M93.5,80.9c-2,0-3.5,1.6-3.5,3.6v1.4c0,2,1.5,3.6,3.5,3.6
		s3.5-1.6,3.5-3.6v-1.4C97,82.5,95.5,80.9,93.5,80.9z M93.5,94.1c-2,0-3.5,1.5-3.5,3.6v25.7c0,2,1.5,3.6,3.5,3.6s3.5-1.6,3.5-3.6
		V97.8C97,95.7,95.5,94.1,93.5,94.1z M125.6,112.4c-1.1-1.8-2.9-2.9-4.7-3.7c-1.9-0.9-3.9-1.7-6.1-1.7h-0.1l-0.1-0.3
		c-2.2-0.4-3.9-1.1-4.8-1.7c-0.5-0.3-0.7-0.6-0.7-0.7c-0.1-0.2-0.1-0.3-0.1-0.6s0.2-0.9,1.1-1.5c0.9-0.7,2.3-1.2,4-1.2
		c2.1,0,4,1.1,6.1,2.4c1.6,1.1,3.8,0.7,4.9-0.9c1-1.6,0.5-3.8-1.1-4.9c-2.1-1.4-5.3-3.6-9.9-3.6c-3,0-5.8,0.9-8.1,2.4
		c-2.2,1.6-3.9,4.2-3.9,7.2c0,1.5,0.4,3,1.1,4.1c1.2,1.8,2.8,2.7,4.5,3.6c1.7,0.8,3.7,1.5,5.7,1.5h0.1c2.4,1,4.3,1.4,5.3,2.1
		c0.5,0.3,0.8,0.7,0.9,0.9c0.1,0.2,0.2,0.4,0.2,0.7c0,0.5-0.3,1.2-1.2,2c-1.1,0.7-2.7,1.3-4.5,1.3c-2.6,0.1-5.5-1.4-7.2-2.9
		c-1.4-1.3-3.8-1-4.9,0.5c-1.2,1.4-1,3.7,0.5,4.9c2.6,2.1,6.6,4.5,11.7,4.5c3.2,0,6.2-1,8.6-2.6c2.4-1.7,4.1-4.4,4.1-7.6
		C126.9,115.2,126.4,113.7,125.6,112.4L125.6,112.4z"/>
</g>
</svg>
