<?xml version="1.0" encoding="utf-8"?>
<!-- Generator: Adobe Illustrator 23.0.6, SVG Export Plug-In . SVG Version: 6.00 Build 0)  -->
<svg version="1.1" id="Capa_1" xmlns="http://www.w3.org/2000/svg" xmlns:xlink="http://www.w3.org/1999/xlink" x="0px" y="0px"
	 viewBox="0 0 128 128" style="enable-background:new 0 0 128 128;" xml:space="preserve">
<style type="text/css">
	.st0{fill:#FFFFFF;}
</style>
<g>
	<path class="st0" d="M6.2,52.7c6.7,3.2,43.7,18.1,49.5,20.9c5.8,2.8,10,2.8,17.4-1c7.4-3.9,42.2-18.1,48.9-21.6
		c3.4-1.8,4.9-3.2,4.9-4.4V34.1c0-1.3-1.7-2.4-5-3.6c-6.5-2.4-41.1-16.1-47.7-18.6c-6.6-2.4-9.3-2.3-17.1,0.5S12.6,29.6,6,32.2
		c-3.2,1.3-5,2.4-5,3.7H0.8v12.7C1,49.8,2.9,51.1,6.2,52.7z M66.6,54.5l-20.3-8.4l29.1-4.5L66.6,54.5z M110.7,34.5l-17.2,6.8
		L91.6,42l-17.2-6.8l19.1-7.5L110.7,34.5z M60.1,22l-2.8-5.2l8.8,3.4l8.3-2.7l-2.2,5.4l8.4,3.2l-10.9,1.1l-2.4,5.9l-3.9-6.5
		l-12.6-1.1C50.8,25.5,60.1,22,60.1,22z M38.4,29.3c8.6,0,15.6,2.7,15.6,6s-7,6-15.6,6s-15.6-2.7-15.6-6S29.8,29.3,38.4,29.3z
		 M122,59.8c-6.7,3.5-41.4,17.8-48.8,21.6c-7.4,3.9-11.5,3.8-17.3,1s-43-17.7-49.6-20.9C2.9,59.9,1,58.6,1,57.3V70
		c0,1.3,1.9,2.6,5.2,4.2c6.7,3.2,43.7,18.1,49.5,20.9s10,2.8,17.4-1c7.4-3.9,42.2-18.1,48.9-21.6c3.4-1.8,4.9-3.2,4.9-4.4V55.6
		C126.9,56.7,125.3,58.1,122,59.8z M122,80.5c-6.7,3.5-41.4,17.8-48.8,21.6c-7.4,3.9-11.5,3.8-17.3,1s-43-17.7-49.6-20.9
		C2.9,80.7,1,79.3,1,78v12.7c0,1.3,1.9,2.6,5.2,4.2c6.7,3.2,43.7,18.1,49.5,20.9s10,2.8,17.4-1c7.4-3.9,42.2-18.1,48.9-21.6
		c3.4-1.8,4.9-3.2,4.9-4.4V76.3C126.9,77.5,125.3,78.8,122,80.5z"/>
</g>
</svg>
