<?xml version="1.0" encoding="utf-8"?>
<!-- Generator: Adobe Illustrator 23.0.6, SVG Export Plug-In . SVG Version: 6.00 Build 0)  -->
<svg version="1.1" id="Capa_1" xmlns="http://www.w3.org/2000/svg" xmlns:xlink="http://www.w3.org/1999/xlink" x="0px" y="0px"
	 viewBox="0 0 128 128" style="enable-background:new 0 0 128 128;" xml:space="preserve">
<style type="text/css">
	.st0{fill:none;}
	.st1{fill:#FFFFFF;}
</style>
<path class="st0" d="M0,0h128v128H0V0z"/>
<path class="st1" d="M88.7,88.1c-9,18.4-24.8,30.8-45.6,34.8c-3.2,0.8-6.5,1.2-9.8,1.1c-12,0-23-5-28.3-13.2
	c-7.2-10.9-9.6-34,14-51.1c0.5,2.6,1.5,6.2,2.1,8.3c-4.6,3.4-8.4,7.9-11.1,13c-4.4,8.6-3.9,17.3,1.3,25.2c3.6,5.4,9.3,8.7,16.6,9.7
	c9.2,1.2,18.4-0.6,26.5-5c12.7-6.7,21.2-14.7,26.7-25.6c-1.6-1.6-2.5-3.8-2.6-6c-0.2-5,3.8-9.2,8.8-9.4h0.3c5.1,0,9.2,4.1,9.2,9.1
	c0,4.7-3.5,8.7-8.2,9.1L88.7,88.1z M117.4,67.9c12.2,13.8,12.5,30.1,7.8,39.6c-4.4,8.6-16,17.3-31.6,17.3c-7.3-0.1-14.4-1.9-21-5.1
	c2.3-1.6,5.5-4.2,7.3-5.9c5.1,2.2,10.5,3.4,16,3.4c10.1,0,17.8-4.7,22.3-13.3c2.9-5.7,3.1-12.4,0.3-19.2
	c-3.4-8.6-9.4-15.9-17.3-20.8C91,56.9,78.9,53.2,66.5,53.3h-2.9c-1.4,3.2-4.5,5.4-8,5.5h-0.3c-5-0.1-9.1-4.2-9-9.2
	c0.1-4.8,3.9-8.8,8.7-9h0.3c3.4,0,6.5,1.9,8,4.9h2.6C86.7,45.4,105,53.4,117.4,67.9z M34.6,90.9c-0.2-1.7,0.2-3.3,1.1-4.7
	c-9.1-15.8-14-35.8-6.5-56.7C34.6,13.8,48.1,3.2,62.8,3.2c15.6,0,31.9,13.7,33.9,40.1c-2.4-0.8-6-2-8.1-2.4
	c-0.5-8.6-7.8-30.1-25.1-29.8c-6.2,0.2-15.3,3.1-20,9.1c-5.8,7.2-9.2,16-9.6,25.2c-1.1,12.6,1.9,25.3,8.5,36.2
	c0.4-0.1,0.8-0.2,1.1-0.2h0.3c5-0.1,9.2,3.9,9.3,9c0.1,5-3.9,9.2-9,9.3h-0.3C38.8,99.7,34.8,95.8,34.6,90.9L34.6,90.9z"/>
</svg>
