<?xml version="1.0" encoding="utf-8"?>
<!-- Generator: Adobe Illustrator 23.0.6, SVG Export Plug-In . SVG Version: 6.00 Build 0)  -->
<svg version="1.1" id="Capa_1" xmlns="http://www.w3.org/2000/svg" xmlns:xlink="http://www.w3.org/1999/xlink" x="0px" y="0px"
	 viewBox="0 0 222 222" style="enable-background:new 0 0 222 222;" xml:space="preserve">
<style type="text/css">
	.st0{fill:#FFFFFF;}
</style>
<path class="st0" d="M112,0C50.3-0.4,0.4,50.1,0,110.1C-0.4,172.5,51,221.6,110.2,222c61.5,0.4,112.3-50.4,111.8-110.8
	C222.5,50.2,171.9,0.4,112,0z M77.2,176c-13.6,2.3-24.9-1.6-27.6-13.1c-0.9-4.2-1.5-8.5-1.7-12.9c-0.3-4.6,0.2-9.2-0.1-13.8
	c-1-12.6-2.6-16.9-14.7-17.5V103c0.9-0.2,1.7-0.4,2.6-0.5c6.6-0.3,9.4-2.4,10.9-8.9c0.7-3.7,1.1-7.4,1.2-11.1
	c0.5-7.2,0.3-14.6,1.5-21.7c1.7-10.3,8.1-15.3,18.6-15.8c3-0.2,6,0,9.4,0v14.1c-1.4,0.1-2.7,0.3-3.9,0.3c-8.6-0.3-9,2.7-9.7,9.8
	c-0.4,4.5,0.1,9-0.2,13.5c-0.3,4.4-0.9,8.9-1.8,13.2c-1.2,6.3-5.1,11.1-10.5,15.1c10.5,6.8,11.7,17.4,12.4,28.2
	c0.4,5.8,0.2,11.6,0.8,17.4c0.5,4.5,2.2,5.6,6.8,5.7c1.9,0.1,3.8,0,6,0V176z M89.1,111.5c-0.3,4.9-4.5,8.6-9.4,8.4
	c-0.2,0-0.4,0-0.6,0c-5-0.2-8.8-4.5-8.6-9.5c0.2-5,4.5-8.8,9.5-8.6c0.1,0,0.1,0,0.2,0c5,0.1,9,4.2,8.9,9.2
	C89.1,111.2,89.1,111.3,89.1,111.5z M111.6,119.9c-5.5,0-9.2-3.5-9.2-8.9c0-0.3,0-0.6,0-0.8c0.2-4.8,4.2-8.5,8.9-8.4
	c5.5,0,9.1,3.5,9.2,8.9C120.5,116.3,117,119.8,111.6,119.9z M142.9,119.9C142.8,119.9,142.8,119.9,142.9,119.9
	c-5.1,0-9.2-4.1-9.2-9.1c0.2-5.1,4.4-9,9.4-9c5,0,9.5,4.3,9.2,9.2C152,116.2,147.4,120.6,142.9,119.9z M187.7,119.1
	c-7.7,0.5-11.2,3.6-12,11.3c-0.5,4.9-0.5,9.9-0.8,14.8c-0.1,5.4-0.6,10.8-1.5,16.2c-2,9.7-8,14.5-18,15.1c-3.2,0.2-6.5,0-9.9,0v-14
	c1.9-0.1,3.5-0.3,5.2-0.3c6-0.1,8.1-2.1,8.4-8c0.3-6.5,0.5-13.1,0.8-19.6c0.4-9.4,3-17.9,11.8-23.7c-5-3.6-9.1-7.9-10.1-13.8
	c-1.3-7.1-1.7-14.4-2.4-21.5c-0.3-3.6-0.3-7.2-0.7-10.8c-0.4-3.9-3-5.2-6.6-5.3c-2,0-4.1,0-6.6,0V45.8c16.5-2.7,27.9,2.8,29,18.5
	c0.4,6.6,0.4,13.3,0.8,19.9c0.2,3.6,0.7,7.2,1.6,10.7c1.5,5.4,4.3,7.4,10,7.6c0.9,0,1.9,0.2,3.2,0.3v15.7
	C189.2,118.8,188.5,119,187.7,119.1z"/>
</svg>
