<?xml version="1.0" encoding="utf-8"?>
<!-- Generator: Adobe Illustrator 23.0.6, SVG Export Plug-In . SVG Version: 6.00 Build 0)  -->
<svg version="1.1" id="Capa_1" xmlns="http://www.w3.org/2000/svg" xmlns:xlink="http://www.w3.org/1999/xlink" x="0px" y="0px"
	 viewBox="0 0 128 128" style="enable-background:new 0 0 128 128;" xml:space="preserve">
<style type="text/css">
	.st0{fill:#FFFFFF;}
</style>
<g>
	<path class="st0" d="M34.3,109.2c-3.6,0-8.5,3.7-8.5,7.9c0,2.1,1.3,3,3.1,3c3.4,0,8.8-3.6,8.8-8C37.7,110,36.2,109.2,34.3,109.2
		L34.3,109.2z M46.1,28.9c0-3.7-2.6-6.5-6.5-6.5c-3.6,0-6.6,2.8-6.6,6.5c0,3.4,2.8,6.6,6.5,6.6C43.1,35.5,46.1,32.7,46.1,28.9
		L46.1,28.9z M63.9,13.6c0-2.8-1.8-6.4-5.7-6.4c-3.5,0-5.3,3.1-5.3,5.9c0,2.7,1.9,6.6,5.7,6.6C62.1,19.8,63.9,16.3,63.9,13.6z
		 M48.4,117.1c-3.2,0-7.7,4.2-7.7,7.4c0,1.6,0.7,2.5,2.4,2.5c2.3,0,5.6-2,7.1-4.8c0.3-0.6,0.8-1.5,0.8-1.7v-1.6
		C50,117.4,49.3,117.1,48.4,117.1L48.4,117.1z M28.5,97.2c0-2.8-2.1-3.9-4.4-3.9c-3.4,0-9.2,3.2-9.2,7.9c0,2.6,1.8,3.8,4.3,3.8
		C22.4,105,28.5,102.1,28.5,97.2L28.5,97.2z M24.4,58.2c3.4,0,8.1-2.3,8.1-7.1c0-3.6-3-5.9-6.3-5.9c-3.6,0-8.2,2.5-8.2,7.1
		C18,55.9,20.9,58.2,24.4,58.2z M26.2,75.6c0-3.3-2.7-4.8-5.6-4.8c-0.2,0-0.3-0.1-1,0c-4.2,0.3-8.1,3.9-8.1,7.6
		c0,3.4,3.1,4.8,5.8,4.8C20.7,83.2,26.2,80.5,26.2,75.6L26.2,75.6z M106.2,9.4c-2.5,0-3.4,3.9-3.4,5.2c0,1.3,0.4,4.1,2.7,4.1
		c2.6,0,3.4-3.9,3.4-5.2C108.8,12.5,108.3,9.4,106.2,9.4L106.2,9.4z M93.7,2.3c-3,0-3.9,3.7-3.9,5.4c0,1.1,0.7,5.2,3.5,5.1
		c2.8,0,3.9-3.7,3.9-5.5C97.2,5.9,96.6,2.3,93.7,2.3L93.7,2.3z M114.4,19.9c-2.3,0-3.2,3.9-3.2,5c0,1,0.4,3.3,2.2,3.3
		c2.3,0,3.1-3.8,3.1-4.9C116.5,22.5,116.2,19.9,114.4,19.9L114.4,19.9z M89.7,106.6c-2.7,0-4.6,4.1-4.6,5.7c0,0.8,0.2,1.7,1.4,1.7
		c2.7,0,4.6-4,4.6-5.7C91.2,107.5,90.9,106.6,89.7,106.6z M63.1,118.3c-3,0-6.6,4-6.6,6.8c0,0.4,0,1.2,0.8,1.7
		c0.8,0.5,2.2,0.6,3.9-0.6c2.3-1.5,3.8-4.2,3.8-6C65,119.3,64.4,118.3,63.1,118.3L63.1,118.3z M77.2,0.8c-3.2,0-4.5,3.8-4.5,5.9
		c0,2.2,1.6,5.9,4.7,5.9c3.2,0,4.4-3.8,4.4-5.8C81.8,4.3,80.7,0.8,77.2,0.8L77.2,0.8z M77.2,114.3c-2.9,0-5.4,4.2-5.4,6.4
		c0,1.1,0.5,1.7,1.6,1.7c2.7,0,5.4-4.1,5.4-6.2C78.8,115.3,78.6,114.3,77.2,114.3L77.2,114.3z"/>
</g>
</svg>
