<?xml version="1.0" encoding="utf-8"?>
<!-- Generator: Adobe Illustrator 23.0.6, SVG Export Plug-In . SVG Version: 6.00 Build 0)  -->
<svg version="1.1" id="Capa_1" xmlns="http://www.w3.org/2000/svg" xmlns:xlink="http://www.w3.org/1999/xlink" x="0px" y="0px"
	 viewBox="0 0 128 128" style="enable-background:new 0 0 128 128;" xml:space="preserve">
<style type="text/css">
	.st0{fill:#FFFFFF;}
</style>
<g>
	<path class="st0" d="M99.4,45.9c-1.6,7.3-7,31.7-7,31.7h10.8c0.6-3,1.1-5.8,1.9-8.8c1.3-5.4,2.8-7.6,6.6-7.6c1.7,0,3.5,0.6,3.5,2.9
		c0,1.1-2.4,11.4-2.8,13.5H123c0,0,3.3-16.1,3.3-16.3c0.1-0.5,0.4-2.1,0.4-2.1c0-3.8-5-5.7-7.6-5.7c-1.9-0.1-0.5,0-2.4,0
		c-3.1,0.1-7.2,1.8-9,3.6l-0.2,0.2l0.1-0.3l2.4-10.9c0-0.1,0-0.1-0.1-0.2L99.4,45.9L99.4,45.9z M48.5,53.2c-1.1,0-2.8,0-5.6,0.1
		C37.3,53.4,29,55.1,29,63.1c0,4.5,4.2,4.9,7.9,5.3c2.9,0.3,5.8,0.6,8.6,0.9c0.8,0.1,1.6,0.3,1.6,1.2c0,1.5-1.3,2-3,2.2
		c-1.8,0.2-2.2,0-2.2,0c-1.1,0-3-0.7-2.8-2.3H26.5v1.9c0,6.1,9.8,6.1,11.6,6.3h3.1l4.8-0.2c6.4-0.4,13.4-2.4,13.7-10.1
		c0.2-5.3-6.6-5.2-9.5-5.5h-0.8c-0.2,0-4.8-0.5-7.1-0.7c-0.3,0-1.9-0.3-1.9-1.2c0-1.9,3.5-1.8,4.2-1.8c1.2,0,3.9-0.1,3.8,2h11.9
		c0-0.4,0.2-0.8,0.2-1.3c0-5.4-6.9-6.4-10.6-6.5C49.9,53.2,49.5,53.2,48.5,53.2L48.5,53.2z M80.5,53.2c-0.5,0-1.1,0-3.9,0.1
		c-5.6,0.1-14,1.9-14,9.9c0,4.5,4.2,4.9,7.9,5.3c2.9,0.3,5.8,0.6,8.6,0.9c0.8,0.1,1.6,0.3,1.6,1.2c0,1.5-1.6,2.1-3,2.2
		c-1.5,0.1-2.2,0-2.2,0c-1.1,0-3-0.6-2.8-2.2H60.2v1.9c0,5.7,9.7,6.1,11.6,6.2l3.1,0.1l4.8-0.2c6.4-0.4,13.4-2.4,13.7-10.1
		c0.2-5.1-6.3-5-9.4-5.4l-0.9-0.1c-0.2,0-4.8-0.4-7.1-0.7c-0.3,0-1.9-0.3-1.9-1.3c0-1.9,3.4-1.8,4.2-1.8c1.2,0,3.9-0.1,3.8,2H94
		c0-0.4,0.2-0.8,0.2-1.3c0-5.4-6.9-6.4-10.6-6.5C81.3,53.3,81,53.2,80.5,53.2L80.5,53.2z M19.8,45.2c0-2-1.4-3.5-3.5-3.5
		c-1.9,0-3.5,1.5-3.5,3.5c0,1.8,1.5,3.5,3.5,3.5C18.1,48.8,19.8,47.3,19.8,45.2z M29.3,37.1c0-1.5-1-3.4-3-3.4
		c-1.9,0-2.8,1.7-2.8,3.1c0,1.4,1,3.6,3,3.6C28.3,40.4,29.3,38.5,29.3,37.1L29.3,37.1z M20.8,92.4c-1.7,0-4,2.3-4,4
		c0,0.9,0.4,1.3,1.3,1.3c1.2,0,2.8-1,3.6-2.6c0.1-0.3,0.3-0.8,0.3-0.9v-0.9C22,92.6,21.3,92.4,20.8,92.4L20.8,92.4z M13.4,88.2
		c-1.9,0-4.6,2-4.6,4.2c0,1.1,0.7,1.6,1.7,1.6c1.8,0,4.7-1.9,4.7-4.3C15.3,88.6,14.5,88.2,13.4,88.2z M8.1,60.9
		c1.8,0,4.3-1.2,4.3-3.8c0-1.9-1.6-3.1-3.4-3.1c-1.9,0-4.4,1.3-4.4,3.8C4.7,59.6,6.3,60.9,8.1,60.9L8.1,60.9z M10.3,81.8
		c0-1.5-1.1-2.1-2.3-2.1c-1.8,0-4.9,1.7-4.9,4.2c0,1.4,1,2,2.3,2C7.1,85.9,10.3,84.4,10.3,81.8z M9.1,70.2c0-1.8-1.4-2.6-3-2.6
		c-0.1,0-0.2,0-0.6,0c-2.2,0.2-4.3,2.1-4.3,4.1c0,1.8,1.7,2.6,3.1,2.6C6.2,74.2,9.1,72.8,9.1,70.2L9.1,70.2z M28.9,93
		c-1.6,0-3.5,2.2-3.5,3.7c0,0.2,0,0.7,0.4,0.9c0.4,0.3,1.2,0.3,2.1-0.3c1.2-0.8,2-2.3,2-3.2C29.9,93.6,29.5,93,28.9,93L28.9,93z
		 M51.9,34.8c-1.4,0-1.8,2.1-1.8,2.8c0,0.7,0.2,2.2,1.4,2.2c1.4,0,1.8-2.1,1.8-2.8C53.3,36.4,53,34.8,51.9,34.8L51.9,34.8z
		 M56.3,40.4c-1.3,0-1.7,2.1-1.7,2.7c0,0.5,0.2,1.8,1.2,1.8c1.2,0,1.7-2,1.7-2.6C57.4,41.8,57.2,40.4,56.3,40.4z M45.2,31
		c-1.6,0-2.1,2-2.1,2.9c0,0.6,0.4,2.8,1.9,2.7c1.5,0,2.1-2,2.1-2.9C47.1,33,46.7,31,45.2,31L45.2,31z M43.1,86.8
		c-1.4,0-2.4,2.2-2.4,3c0,0.4,0.1,0.9,0.8,0.9c1.4,0,2.4-2.2,2.4-3C43.8,87.3,43.7,86.8,43.1,86.8L43.1,86.8z M36.4,30.2
		c-1.7,0-2.4,2-2.4,3.1c0,1.2,0.8,3.1,2.5,3.1c1.7,0,2.4-2,2.3-3.1C38.8,32.1,38.3,30.2,36.4,30.2L36.4,30.2z M36.4,90.9
		c-1.6,0-2.9,2.2-2.9,3.4c0,0.6,0.3,0.9,0.9,0.9c1.4,0,2.9-2.2,2.9-3.3C37.2,91.4,37.1,90.9,36.4,90.9L36.4,90.9z"/>
</g>
</svg>
