<?xml version="1.0" encoding="utf-8"?>
<!-- Generator: Adobe Illustrator 23.0.6, SVG Export Plug-In . SVG Version: 6.00 Build 0)  -->
<svg version="1.1" id="angularjs" xmlns="http://www.w3.org/2000/svg" xmlns:xlink="http://www.w3.org/1999/xlink" x="0px" y="0px"
	 viewBox="0 0 128 128" style="enable-background:new 0 0 128 128;" xml:space="preserve">
<style type="text/css">
	.st0{fill:#FFFFFF;}
</style>
<title>Artboard 13</title>
<g id="plain">
	<path class="st0" d="M117.3,98.1L66.2,127v-22.5L98,87L117.3,98.1z M120.8,94.9V34.5l-18.7,10.8v38.8L120.8,94.9L120.8,94.9z
		 M10.7,98.1l51,28.9v-22.5L29.9,87L10.7,98.1z M7.2,94.9V34.5l18.7,10.8v38.8L7.2,94.9z M9.4,30.6L61.8,1v21.8L28.2,41.2l-0.3,0.2
		L9.4,30.6z M118.6,30.6L66.2,1v21.8l33.6,18.4l0.3,0.2L118.6,30.6L118.6,30.6z"/>
	<path class="st0" d="M61.8,99.4L30.4,82.1V47.9L61.8,66V99.4z M66.2,99.4l31.4-17.2V47.9L66.2,66V99.4z M32.5,44L64,26.7L95.5,44
		L64,62.2L32.5,44z"/>
</g>
</svg>
