<?xml version="1.0" encoding="utf-8"?>
<!-- Generator: Adobe Illustrator 23.0.6, SVG Export Plug-In . SVG Version: 6.00 Build 0)  -->
<svg version="1.1" id="angularjs" xmlns="http://www.w3.org/2000/svg" xmlns:xlink="http://www.w3.org/1999/xlink" x="0px" y="0px"
	 viewBox="0 0 128 128" style="enable-background:new 0 0 128 128;" xml:space="preserve">
<style type="text/css">
	.st0{fill:#FFFFFF;}
</style>
<title>Artboard 15</title>
<g id="plain-wordmark">
	<path class="st0" d="M30.1,72.2l-12.3,6.9v-5.4l7.6-4.2L30.1,72.2L30.1,72.2z M31,71.4V56.9l-4.5,2.6v9.3L31,71.4L31,71.4z
		 M4.5,72.2l12.3,6.9v-5.4l-7.7-4.2L4.5,72.2z M3.7,71.4V56.9l4.5,2.6v9.3L3.7,71.4z M4.2,56l12.6-7.1v5.2l-8.1,4.4H8.7L4.2,56z
		 M30.5,56l-12.6-7.1v5.2l8.1,4.4H26L30.5,56z"/>
	<path class="st0" d="M16.8,72.5l-7.5-4.2v-8.2l7.6,4.4L16.8,72.5z M17.9,72.5l7.5-4.2v-8.2l-7.5,4.4V72.5z M9.8,59.2l7.6-4.2
		l7.6,4.2l-7.6,4.4L9.8,59.2z"/>
	<path class="st0" d="M48.6,69.6h3.3l3.4-11.3h-3.2l-2,8l-2.1-8h-2.8l-2.2,8l-2-8h-3.2l3.4,11.3h3.3l2.1-7.2L48.6,69.6z M55.5,64
		c-0.1,3.1,2.2,5.7,5.3,5.9c0.2,0,0.4,0,0.6,0c1.9,0.1,3.7-0.9,4.7-2.5l-2-1.5c-0.6,0.9-1.7,1.4-2.7,1.4c-1.5,0.1-2.8-1-2.9-2.5
		c0,0,0,0,0-0.1h7.9c0-0.2,0-0.4,0-0.7c0-3.7-2-6-5.5-6C57.8,58,55.4,60.6,55.5,64L55.5,64z M58.6,62.8c0-1.3,1.1-2.3,2.4-2.3
		c1.3-0.1,2.3,0.9,2.4,2.2c0,0,0,0.1,0,0.1L58.6,62.8z M67.6,69.6h2.8v-1.2c0.9,0.9,2.1,1.5,3.3,1.4c3.2,0,5.5-2.4,5.5-5.9
		S77.2,58,73.9,58c-1.3,0-2.5,0.5-3.3,1.5V54h-3L67.6,69.6L67.6,69.6L67.6,69.6z M70.5,64c0-2.1,1.2-3.3,2.9-3.3s2.9,1.3,2.9,3.3
		s-1.2,3.2-2.9,3.2c-1.7-0.1-3-1.4-2.9-3.1C70.5,64.1,70.5,64.1,70.5,64z M80.4,73.6h3v-5.2c0.8,1,2.1,1.5,3.3,1.4
		c3.2,0,5.3-2.4,5.3-5.9S89.8,58,86.6,58c-1.3,0-2.5,0.5-3.3,1.5v-1.2h-2.8L80.4,73.6L80.4,73.6z M83.3,63.9
		c-0.1-1.7,1.1-3.1,2.7-3.2c0.1,0,0.1,0,0.2,0c1.7,0,2.9,1.2,2.9,3.2c0,2-1.2,3.3-2.9,3.3S83.3,66,83.3,63.9L83.3,63.9z M92.6,66.1
		c0,2.4,1.9,3.8,4.2,3.8c1,0.1,2-0.3,2.7-1l0.2,0.7h2.6v-7.2c0-2.5-1.1-4.4-4.7-4.4c-1.6,0-3.1,0.5-4.4,1.3l1.1,2
		c0.9-0.5,2-0.8,3-0.8c1.3,0,2,0.7,2,1.7V63c-0.7-0.4-1.5-0.7-2.4-0.7C94.4,62.3,92.6,63.8,92.6,66.1L92.6,66.1z M95.6,66
		c0-0.9,0.8-1.6,1.9-1.6s2,0.6,2,1.6s-0.8,1.6-1.9,1.6S95.6,66.9,95.6,66z M109.6,67.2c-1.8-0.1-3.2-1.6-3.2-3.4
		c0.1-1.7,1.4-3,3.1-3.2c1,0,1.9,0.4,2.6,1.1l0.8-2.5c-1-0.8-2.3-1.3-3.5-1.3c-3.2-0.1-5.9,2.4-6,5.6c0,0.1,0,0.2,0,0.3
		c-0.1,3.2,2.4,5.8,5.6,5.9c0.1,0,0.3,0,0.4,0c1.3,0,2.5-0.4,3.6-1.2l-0.8-2.4C111.5,66.8,110.6,67.2,109.6,67.2L109.6,67.2z
		 M114.1,69.6h3v-5.8l3.8,5.8h3.5l-4.3-6.2l4-5.1h-3.3l-3.7,4.7v-9h-3L114.1,69.6L114.1,69.6z"/>
</g>
</svg>
