<?xml version="1.0" encoding="utf-8"?>
<!-- Generator: Adobe Illustrator 23.0.6, SVG Export Plug-In . SVG Version: 6.00 Build 0)  -->
<svg version="1.1" id="Capa_1" xmlns="http://www.w3.org/2000/svg" xmlns:xlink="http://www.w3.org/1999/xlink" x="0px" y="0px"
	 viewBox="0 0 128 128" style="enable-background:new 0 0 128 128;" xml:space="preserve">
<style type="text/css">
	.st0{fill-rule:evenodd;clip-rule:evenodd;fill:#FFFFFF;}
</style>
<path class="st0" d="M59.6,114.4c-2.4-0.2-4.9-0.1-7.3-0.2c-0.2,0-0.5,0.3-0.7,0.4c0.2,0.1,0.4,0.4,0.6,0.4c1.1,0.1,1.6,0.7,1.6,1.8
	c0,2.2,0,4.5,0,6.7c0,1.4-0.8,2-2.2,1.7c-0.7-0.1-1.5-0.4-2-0.8c-1.2-1-2.3-2.1-3.5-3.3l0.7-0.3c1.9-0.7,2.7-1.8,2.6-3.5
	c-0.1-1.5-1.4-2.8-3.2-2.9c-2.4-0.2-4.8-0.1-7.2-0.2c-0.2,0-0.4,0.2-0.5,0.3c0.2,0.2,0.4,0.4,0.5,0.5c1.4,0.1,1.7,0.9,1.7,2
	c0,2.1,0,4.1,0,6.2c0,1.1-0.4,1.9-1.6,2c-0.2,0-0.4,0.3-0.6,0.4c0.2,0.1,0.5,0.4,0.7,0.4c1.9,0,3.7,0,5.6,0c0.2,0,0.5-0.3,0.7-0.4
	l-0.6-0.4c-0.5-0.3-1.3-0.5-1.4-0.9c-0.3-1-0.2-2-0.3-3l0.4-0.1c0.3,0.3,0.6,0.6,0.9,1c0.9,1.1,1.8,2.2,2.7,3.3
	c0.2,0.3,0.6,0.6,0.9,0.6c4,0,8,0,11.9-0.2c2.3-0.2,4-1.5,4.8-3.8C66,118.2,63.8,114.7,59.6,114.4z M43,119.9v-4.5
	c1-0.1,2.6-0.3,3.2,0.8c0.4,0.7,0.4,1.9,0.1,2.7C45.7,120.2,44,120,43,119.9z M61.7,122.9c-0.7,1.5-3,2.4-4.5,1.8
	c-0.4-0.1-0.8-0.8-0.8-1.2c-0.1-2.7,0-5.4,0-8.2c2-0.1,3.9-0.2,5.1,1.6C62.6,118.8,62.5,120.9,61.7,122.9z M100.8,124.6
	c-1,0.3-2.4,0.4-3.2-0.1c-1.7-0.9-0.6-2.7-0.9-4.1c2.1-0.2,2.1-0.2,2.8,1.6c0.1,0.1,0.3,0.2,0.4,0.3c0.1-0.2,0.3-0.4,0.3-0.6
	c0-1.4,0-2.8,0-4.1c0-0.2-0.2-0.4-0.4-0.7c-0.3,0.8-0.3,1.6-0.8,1.9c-0.5,0.4-2.1,0.4-2.1,0.5v-4.1c1,0.1,2.1,0.2,3.2,0.2
	c1.4,0,1.3,1.5,2,2.2l0.3-0.1l-0.2-3.2c-2.9-0.4-9.8-0.2-10.5,0.3c0.2,0.1,0.4,0.3,0.6,0.3c1.4,0,1.7,0.9,1.7,2c0,1.9,0.1,3.9,0,5.8
	c0,2.3-1.4,3.1-3.3,1.7c-1.4-0.9-2.5-2.2-3.5-3.1c1-1,2.2-1.8,2.7-2.8c0.9-1.9-0.6-4-3.1-4.3c-2.3-0.2-4.6-0.1-6.9-0.2
	c-0.2,0-0.5,0.2-0.7,0.3c0.2,0.2,0.4,0.4,0.6,0.4c1.4,0,1.7,0.9,1.7,2.1c0,1.6,0,3.2,0,4.9c0,2.6,0,2.6-2.2,3.5l-0.2,0.3
	c0.3,0.1,0.6,0.3,0.9,0.3c1.8,0,3.7,0,5.5,0c0.3,0,0.5-0.2,0.8-0.3c-0.3-0.2-0.5-0.5-0.8-0.5c-0.9-0.1-1.4-0.7-1.4-1.5
	c-0.1-0.8,0-1.6,0-2.8c0.5,0.5,0.8,0.7,1,1c0.9,1.1,1.9,2.2,2.7,3.4c0.4,0.6,0.9,0.8,1.6,0.8c4.1,0,8.3,0,12.4,0c0.3,0,1-0.1,1-0.1
	v-3.1C102,123.5,101.6,124.4,100.8,124.6L100.8,124.6z M84,119.9v-4.5c2-0.3,3.5,0.4,3.6,2.1C87.6,119.3,87,120,84,119.9z
	 M26.4,111.2c-0.9-0.7-6.2-0.6-6.8,0.1c0.4,0.1,0.7,0.2,1,0.3c1,0.1,1.4,0.7,1.1,1.6c-0.8,2.5-1.6,5-2.6,7.8c-0.2-0.5-0.3-0.8-0.4-1
	c-0.9-2.7-1.8-5.5-2.7-8.2c-0.1-0.4-0.5-0.8-0.7-1.1c-0.3,0.4-0.6,0.7-0.7,1.1c-1,2.9-2,5.9-3,8.8l-0.3,0c-0.7-2.2-1.5-4.5-2.2-6.7
	c-0.6-1.8-0.4-2,1.4-2.5c0.2-0.1,0.3-0.2,0.5-0.4c-0.2-0.1-0.3-0.4-0.5-0.4c-2.3,0-4.5,0-6.8,0c-0.2,0-0.3,0.2-0.5,0.4
	c0.1,0.1,0.2,0.3,0.4,0.3c2,0.1,2.5,1.6,3,3.2c1.2,3.6,2.3,7.2,3.5,10.8c0.1,0.4,0.4,0.8,0.5,1.2l0.4,0l3.6-10.8
	c1.3,3.8,2.4,7.3,3.6,10.8l0.4,0c0.2-0.4,0.3-0.8,0.5-1.2c1.3-3.8,2.6-7.6,3.8-11.4c0.5-1.4,1.2-2.5,2.9-2.5
	C25.9,111.5,26.1,111.3,26.4,111.2z M74.9,111c-2.9-0.3-5.9-0.2-8.9-0.2c-0.2,0-0.3,0.2-0.6,0.5c0.4,0.1,0.6,0.2,0.8,0.3
	c1.4,0.1,2.1,0.9,2.1,2.2c0,3.1,0,6.2,0,9.2c0,1.3-0.6,2.2-2,2.2c-0.2,0-0.4,0.3-0.7,0.5c0.3,0.1,0.5,0.3,0.8,0.3c2.2,0,4.4,0,6.6,0
	c0.3,0,0.5-0.2,0.8-0.4c-0.2-0.2-0.4-0.4-0.7-0.4c-1.1-0.1-1.8-0.5-1.9-1.7c-0.1-1.3-0.2-2.6-0.3-4.1c1,0,1.9,0.1,2.8,0
	c2.1-0.2,3.9-0.9,4.7-3.1C79.2,113.9,77.7,111.3,74.9,111L74.9,111z M75.4,116.8c-0.6,1.2-1.4,1.4-4.4,1.2v-5.9
	c1,0.1,3.2-0.4,4.2,1.2C76,114.3,76,115.6,75.4,116.8z M35.7,115.5c-2.7-2.3-7.1-2.2-9.7,0.2c-2.5,2.2-2.8,5.7-0.7,8.2
	c1.4,1.8,3.4,2.5,5.8,2.6c0.4-0.1,1-0.1,1.5-0.2c2.6-0.7,4.5-2.1,5.2-4.9C38.4,119,37.6,117,35.7,115.5z M34,123.9
	c-1.7,2.2-5.2,1.7-6.5-0.7c-0.9-1.7-1-3.4-0.4-5.2c0.6-2,2-3,3.9-3c2,0,3.3,1,4,2.9c0.2,0.7,0.3,1.4,0.5,2.1l0.2,0.1
	C35.1,121.4,34.8,122.9,34,123.9z M122.1,119.3c-1.1-0.5-2.2-1-3.2-1.7c-0.4-0.3-0.8-1-0.7-1.4c0.1-0.5,0.7-1,1.2-1.1
	c1.5-0.4,2.7,0.5,3.3,2.1c0.1,0.3,0.6,0.6,0.8,0.9c0.1-0.1,0.4-0.1,0.4-0.2v-4.4c-1,0.4-1,0.7-1.1,0.8c-1.4-0.2-2.6-0.5-3.7-0.4
	c-1.5,0-2.7,1.1-3,2.3c-0.4,1.4,0.1,2.7,1.4,3.6c0.4,0.3,0.7,0.5,1.1,0.7c0.9,0.5,1.8,0.9,2.7,1.4c0.8,0.5,1.5,1.1,1.2,2.1
	c-0.4,1.2-1.4,1.3-2.4,1.2c-1.8-0.2-2.8-1.3-3.3-2.9c-0.1-0.2-0.3-0.4-0.5-0.7c-0.1,0.1-0.3,0.3-0.3,0.4c0,1.5,0,3,0,4.4l0.4,0.1
	l0.9-1.1c0.6,0.3,1.1,0.6,1.7,0.8c2.2,0.7,4.7-0.3,5.5-2.2C125.3,122.1,124.5,120.5,122.1,119.3L122.1,119.3z M111.3,119.3
	c-1-0.5-2-1-2.9-1.5c-0.7-0.4-1.3-1-0.9-1.7c0.3-0.5,1.1-0.9,1.7-1c1.3-0.2,2.2,0.7,2.8,2.2c0.1,0.3,0.4,0.5,0.6,0.8l0.3-0.2
	c0-1.2,0-2.4,0-3.6c0-0.1-0.1-0.2-0.2-0.5l-1.1,0.9c-0.2-0.1-0.4-0.2-0.7-0.4c-2.1-0.9-4.6-0.2-5.4,1.6c-0.8,1.7,0.1,3.6,2.4,4.7
	c1,0.5,2,1,3,1.6c0.7,0.4,1.2,1.2,0.8,1.9c-0.3,0.6-1.1,1-1.8,1.1c-1.6,0.2-2.9-0.7-3.6-2.2c-0.1-0.3-0.2-0.7-0.4-1
	c-0.1-0.2-0.4-0.2-0.5-0.4c-0.1,0.2-0.3,0.3-0.3,0.5c0,1.3,0,2.6,0,3.9c0,0.2,0.1,0.4,0.3,0.5c0.1,0,0.4-0.1,0.5-0.2
	c0.2-0.2,0.3-0.5,0.4-0.8c0.6,0.3,1.2,0.6,1.7,0.8c2.2,0.8,4.7-0.2,5.5-2.1C114.5,122.2,113.7,120.5,111.3,119.3L111.3,119.3z
	 M64.2,97.7c26.5,0,47.9-21.6,47.9-48.2c0-26.1-21.3-47.7-46.8-48.1C38.5,0.9,16.1,22.6,16.1,49C16.1,76.1,37.4,97.7,64.2,97.7z
	 M64.1,3.7c25.4,0,45.7,20.7,45.7,46.6c0,24.5-20.8,45-45.7,45c-25.3,0-45.7-20.5-45.7-46.1C18.4,24.3,39.1,3.7,64.1,3.7z
	 M44.9,27.9c0.4,1.4-0.7,1.9-2,2c-1.3,0.1-2.6,0.2-4.1,0.3c5,14.9,9.9,29.5,14.9,44.5c0.4-0.6,0.5-0.8,0.6-0.9
	c2.8-8.3,5.5-16.5,8.2-24.8c0.2-0.8,0.1-1.8-0.1-2.5c-1.4-4.1-3.1-8.1-4.4-12.3c-0.9-2.8-2-4.7-5.4-4.4c-0.6,0.1-1.3-1.2-1.9-1.8
	c0.8-0.5,1.5-1.3,2.3-1.3c6.9-0.1,13.7-0.1,20.6,0c0.8,0,1.6,0.9,2.3,1.4c-0.7,0.6-1.3,1.6-2.1,1.8c-1.3,0.4-2.7,0.3-4.2,0.4
	c5,14.9,9.9,29.4,15,44.5c2.3-7.5,4.4-14.4,6.4-21.4c1.8-6.2,0.7-12-2.6-17.4c-1-1.6-2.2-3.2-2.8-5c-0.6-2-1.2-4.3-0.8-6.4
	c0.6-3.5,3.2-5.2,6.8-5.5C72.1,0.8,41.2,7.3,29.9,27.1c4.4-0.2,8.5-0.5,12.7-0.5C43.4,26.6,44.7,27.3,44.9,27.9L44.9,27.9z
	 M52.7,88.1c-0.1,0.3-0.1,0.6-0.2,1c8.5,2.3,16.8,2.2,25.2-0.7C73.5,76.6,69.2,65,64.8,53C60.7,65,56.7,76.6,52.7,88.1z M46.2,86.5
	L26.6,32.9C17.8,50.2,24.5,76.4,46.2,86.5z M105.2,52.1c0.6-8.1-2.2-19.4-4.6-21c-0.3,3-0.1,6.3-0.9,9.4c-2,7.2-4.5,14.2-6.9,21.2
	c-2.6,7.7-5.3,15.3-7.9,22.9C97.3,77.3,104.2,66.4,105.2,52.1z"/>
</svg>
