<svg version="1.1" xmlns="http://www.w3.org/2000/svg" xmlns:xlink="http://www.w3.org/1999/xlink" x="0px" y="0px" viewBox="0 0 533.66 533.66" style="enable-background:new 0 0 142 142;" xml:space="preserve" width="100%">
                    <path fill="#ffffff" class="cls-1" d="M294.08,33.67C146.72,33.67,27.25,153.13,27.25,300.5S146.72,567.33,294.08,567.33,560.91,447.87,560.91,300.5,441.45,33.67,294.08,33.67ZM203.9,220.26h-51V280h37.31v43.54H152.9V382h51v42.29H109.36V178H203.9Zm133.72,29.86H295.25l.08-13.68a16.17,16.17,0,1,0-32.34,0V365.81a16.17,16.17,0,1,0,32.34,0v-42.3H276.67V280h60.95v144.3H316.48v-8.86a57.55,57.55,0,0,1-36.7,13.22h-1.24a58,58,0,0,1-57.85-57.85V231.46a58,58,0,0,1,57.85-57.84h1.24a58,58,0,0,1,57.84,57.84ZM477,370.16a58.64,58.64,0,0,1-58.47,58.47h0A58.64,58.64,0,0,1,360,370.16V232.08a58.64,58.64,0,0,1,58.47-58.46h0A58.64,58.64,0,0,1,477,232.08Z" transform="translate(-27.25 -33.67)"></path><rect fill="#ffffff" class="cls-1" x="375.05" y="186.59" width="32.34" height="161.72" rx="16.17"></rect>
                </svg>